<svg version="1.1" viewBox="0 0 7205.3 4850.7" xmlns="http://www.w3.org/2000/svg"><path fill="black"  preserveAspectRatio="none" d="m981.17 2337.3c-4.7155-4.9571-5.278-6.0647-3.2757-6.4503 1.3295-0.2561 3.3964 0.5767 4.5931 1.8504 1.1967 1.2738 1.4257 1.896 0.5091 1.3827-0.9167-0.5132-1.6667-0.4177-1.6667 0.2123 0 1.7878 2.9996 4.3453 5.0966 4.3453 1.5867 0 1.6095-0.3813 0.1397-2.3333-1.6424-2.1812-1.6002-2.1904 0.6484-0.1407 1.849 1.6855 2.0865 2.7621 1.027 4.6555-1.255 2.2425-1.8877 1.9273-7.0715-3.5219zm68.43-8.6267c-6.9901-2.1822-14.582-5.7128-15.509-7.2121-0.3766-0.6093-0.1358-3.0215 0.535-5.3604 1.0881-3.794 0.8682-4.4128-2.0387-5.7372-1.792-0.8165-3.2582-2.2933-3.2582-3.2819 0-1.4608-0.497-1.4869-2.655-0.1392-2.2815 1.4248-2.9485 1.239-4.7423-1.322-1.148-1.639-2.8603-2.9801-3.805-2.9801-2.6135 0-6.2941-4.6903-5.4359-6.9269 0.4177-1.0886-0.2092-2.7832-1.3933-3.7659-1.8582-1.5421-2.5897-1.2521-5.346 2.1197-1.7563 2.1486-3.2149 4.583-3.2413 5.4099-0.026 0.8268-0.889 2.2015-1.9171 3.0547-1.028 0.8532-2.2612 3.1766-2.7405 5.1632-2.7935 11.58-3.5584 13.345-6.0672 14.001-2.6983 0.7056-3.7629 3.611-1.3231 3.611 0.7334 0 1.3334 0.6734 1.3334 1.4965 0 1.1057-0.4705 1.1063-1.8012 0-0.9907-0.8223-4.5841-1.8764-7.9855-2.3425-7.2009-0.9871-10.073-3.4454-7.561-6.4719 2.4325-2.9311 0.5401-8.3957-4.6544-13.44-4.1927-4.0717-4.8313-4.2825-8.6301-2.8486-2.9355 1.1081-4.7439 1.1438-6.3578 0.1253-1.7117-1.0797-3.3157-0.7972-6.6528 1.1717-2.869 1.6928-6.0202 2.4051-9.0667 2.0495-6.6018-0.7708-5.0774 1.8448 2.1406 3.6729 5.9801 1.5146 7.1944 4.027 3.0694 6.3507-1.1907 0.6708-1.6332 2.0995-1.1358 3.6667 0.7172 2.2596 0.1355 2.5677-4.8469 2.5677-7.617 0-14.732-2.6571-14.148-5.2835 0.2506-1.1274 1.1765-1.8977 2.0575-1.7117 1.2158 0.2565 1.1998-0.3055-0.066-2.3333-0.9176-1.4694-2.7595-2.6715-4.093-2.6715-1.4064 0-2.0484-0.6087-1.5288-1.4495 0.4927-0.7972 1.9845-1.1648 3.315-0.8169 2.1023 0.5499 2.2317 0.2212 0.9879-2.5087-0.7872-1.7277-1.9946-2.7932-2.6831-2.3676-0.6886 0.4255-3.1508-0.155-5.4717-1.2901-2.321-1.1352-5.2699-2.3833-6.5532-2.7737s-2.3333-1.7071-2.3333-2.9262c0-1.8077 0.9018-2.0698 4.8921-1.4224 2.6906 0.4367 5.2406 1.3268 5.6666 1.978 1.0877 1.6627 14.775 3.2983 14.775 1.7656 0-1.6184-3.3307-2.8501-7.7757-2.8756-2.2538-0.013-2.9505-0.406-1.901-1.0725 1.1107-0.7053-0.3176-2.0112-4.3333-3.9623-3.2945-1.6005-5.99-3.7825-5.99-4.8488 0-1.0662-0.5724-2.2924-1.272-2.7248-2.2903-1.4154-7.7945 0.7976-8.4772 3.4084-0.3673 1.4046-1.2678 2.5538-2.0012 2.5538-2.0846 0-0.1333-5.4652 2.2687-6.3539 1.1816-0.4372 3.4592-2.2932 5.0613-4.1244 2.6788-3.0619 3.3216-3.2117 8-1.8661 5.8952 1.6956 18.437 0.7344 20.34-1.5591 0.9725-1.1717-0.552-1.5512-6.0223-1.4993-4.3155 0.041-7.7302-0.5858-8.3121-1.5256-0.5431-0.8772-3.4863-1.7424-6.5403-1.9227-3.054-0.1801-5.2531-0.8124-4.8869-1.4049 0.3662-0.5926 0.03-1.0774-0.7462-1.0774-0.7766 0-1.412 0.9-1.412 2 0 2.3838-6.0397 2.7598-7.4584 0.4644-1.2789-2.0693 3.4008-5.329 6.3202-4.4024 1.3708 0.435 3.4646-0.3884 5.07-1.9937 1.5421-1.5421 4.4794-2.7349 6.7349-2.7349 3.0357 0 4-0.6084 4-2.524 0-4.5982-11.172-6.1184-12.334-1.6783-0.9182 3.5115-15.666 6.1381-15.666 2.7903 0-0.7767 0.6927-0.9839 1.5393-0.4607 0.8545 0.5281 1.1808 0.3713 0.7335-0.3525-0.4432-0.7171-3.2359-2.1059-6.206-3.0862-2.9701-0.9801-5.4002-2.3265-5.4002-2.9918 0-0.6655 1.1516-0.8443 2.5592-0.3976 3.0615 0.9717 5.4785-4.2946 2.746-5.9832-0.9057-0.5599-1.2573-1.648-0.7813-2.4183 0.4761-0.7703-0.1971-2.0369-1.4958-2.8148-2.2308-1.3361-2.214-1.5349 0.3053-3.5947 1.8939-1.5485 2.0371-1.9652 0.4944-1.438-3.6522 1.2483-10.079-6.8189-10.162-12.756-0.126-8.9869-6.2286-12.243-9.4226-5.0272-1.2714 2.8722-1.3592 4.6475-0.3255 6.579 2.0957 3.9158 1.7684 4.5316-1.9176 3.6065-4.0043-1.0051-4.6468 2.0821-1 4.8052 2.4218 1.8083 3.1502 8.4584 1.2496 11.409-0.5905 0.9167-2.9668 1.6667-5.2806 1.6667-3.8443 0-4.0244 0.1827-2.0885 2.1185 1.7021 1.7022 1.862 3.0782 0.8134 7-0.7179 2.6848-1.3926 6.8315-1.4995 9.2148-0.107 2.3834-0.621 4.3334-1.1424 4.3334-0.5215 0-2.0215 1.1281-3.3334 2.5069-1.3119 1.3789-4.6352 2.7584-7.3852 3.0656-5.0551 0.5648-6.9703-0.8621-2.6667-1.9868 1.9712-0.5151 1.9195-0.6369-0.3333-0.7848-2.1788-0.1431-2.3078-0.402-0.7053-1.4155 1.0787-0.6822 1.6002-1.6017 1.1587-2.043-0.4415-0.4415-1.8532 0.2478-3.1373 1.5318-2.224 2.224-2.286 2.1796-1.3091-0.9364 2.411-7.6902 2.3735-7.454 0.8381-5.2777-1.2165 1.7243-1.6781 1.6343-3.4168-0.6667-1.1056-1.463-2.0293-3.1294-2.0526-3.703-0.063-1.5595 5.6641-3.3822 7.9576-2.5323 1.6424 0.6087 1.7041 0.3767 0.3449-1.2979-0.9103-1.1214-1.2103-2.53-0.6667-3.13 0.5437-0.6001 0.2926-0.6929-0.5579-0.2064-1.8517 1.0596-5.787-0.255-5.787-1.9332 0-0.6548 0.9966-1.1906 2.2147-1.1906 1.4294 0 0.501-1.3003-2.618-3.6667-2.6581-2.0167-4.8547-4.4167-4.8814-5.3333-0.031-1.0475-2.0301-1.6667-5.3819-1.6667-5.2489 0-6.889-1.5479-3.7172-3.5081 0.8888-0.5494 3.5888-0.866 6-0.7036 4.7692 0.3212 5.9738-1.7706 1.7852-3.1-1.6862-0.5352-2.3154-1.563-1.7919-2.9272 0.4986-1.2994-0.3518-2.9762-2.2263-4.3902-2.5654-1.935-2.7984-2.7266-1.5106-5.1328 1.2712-2.3753 1.1873-2.7161-0.5084-2.0654-2.2384 0.8589-2.8241-1.5251-0.6975-2.8394 2.1973-1.358 1.5284-2.8164-2.0369-4.4409-2.5869-1.1787-3.991-1.1509-6.0407 0.12-2.1732 1.3468-2.8882 1.3051-3.8397-0.2241-0.6431-1.0335-0.8393-2.7392-0.4359-3.7904 0.7318-1.9071 3.8702-1.809 12.686 0.3964 2.7839 0.6964 3.6667 0.4334 3.6667-1.0923 0-1.8551-5.5272-3.5327-12.307-3.7353-2.574-0.077-4.0832-1.9515-4.6845-5.8184-0.2211-1.4222-0.7403-2.9222-1.1536-3.3334-0.4134-0.4112-6.3805-0.7145-13.26-0.6741-8.9188 0.052-12.695-0.4112-13.157-1.6149-0.4895-1.2758 1.6162-1.6299 8.6163-1.4487 11.88 0.3075 12.908-2.4341 1.9458-5.1899-3.8703-0.973-3.8054-1.0318 2-1.815l6-0.8095-5.3333-1.0209c-10.428-1.9962-12.054-2.0939-16.667-1.002l-4.6667 1.1046 3.6667 1.006c2.0167 0.5532 3.6667 1.4446 3.6667 1.9807 0 1.8667-6.8314 4.0695-12.62 4.0695-3.2055 0-6.7738 0.3629-7.9296 0.8064-3.1691 1.2161-1.1453 3.1936 3.2683 3.1936 2.1419 0 6.2606 0.9468 9.1526 2.104 4.4868 1.7952 5.2028 2.6266 4.8803 5.6666-0.215 2.0272-1.3203 3.7484-2.5646 3.9938-1.2026 0.2372-2.1866 0.9717-2.1866 1.6324 0 1.5318-7.4552 5.4374-12.667 6.6357l-4 0.9197 3.5371 1.4416c8.1236 3.311 5.9764 5.5907-5.8077 6.166-4.661 0.2276-8.4939 1.0668-8.779 1.9222-0.5927 1.7782-8.2837 2.0822-8.2837 0.3273 0-0.6549 0.9311-1.548 2.0692-1.9848 1.1866-0.4553 1.7218-0.2317 1.2546 0.5241-1.356 2.1942 2.8861 1.475 4.7832-0.811 1.491-1.7964 1.4079-2.33-0.5314-3.4152-1.2641-0.7075-1.9892-1.7866-1.6114-2.398 0.3779-0.6114-0.2406-1.4676-1.3745-1.9028-1.1805-0.453-1.7134-0.2278-1.247 0.527 1.4766 2.3891-1.5473 1.372-4.0094-1.3486-1.3273-1.4667-3.6703-2.6748-5.2067-2.685-5.2249-0.033-8.7933-1.6202-8.7933-3.9089 0-1.3951-2.2038-3.2792-5.6667-4.8445-6.667-3.0139-7.2082-5.7696-1.6666-8.4876 3.091-1.5162 3.4698-2.0727 1.6666-2.4491-3.6238-0.7565-2.7484-2.3116 1.3334-2.3685 2.0166-0.028 8.1666-0.2412 13.667-0.4738 9.4519-0.3994 9.7077-0.4894 4.6667-1.642-2.9333-0.6706-8.8051-1.2092-13.048-1.1968-5.8328 0.017-7.9133-0.4942-8.5276-2.0953-1.1154-2.9064 2.0141-4.536 5.8847-3.0644 1.759 0.6687 4.2091 1.1643 5.4447 1.1012 1.2355-0.063 0.6213-0.6044-1.365-1.2032-5.83-1.7575-12.274-6.8503-10.25-8.1009 0.9449-0.584 2.6965-0.5382 3.8924 0.1013 1.4963 0.8008 2.7804 0.456 4.1175-1.1055 1.0686-1.2481 3.7225-3.6401 5.8974-5.3157l3.9544-3.0464-12.667 0.6557c-11.625 0.6018-12.351 0.4103-4.6041-1.2138 2.9504-0.6186 3.6119-5.0846 1.2823-8.6574-0.7172-1.1-1.3132-2.6-1.3244-3.3333-0.011-0.7333-1.9092-1.5168-4.2177-1.7409-2.8257-0.2746-4.4188-1.255-4.8752-3-0.639-2.4438 0.1369-2.5978 13.531-2.6859l14.208-0.093-7.3333-2.5356c-4.0333-1.3946-10.434-2.5526-14.224-2.5731-3.79-0.02-7.84-0.4017-9-0.8469-4.0938-1.571-2.0331-3.1923 4.2243-3.3236 3.4833-0.073 7.8273-0.5487 9.6532-1.057 4.9214-1.3697 0.8893-3.4768-6.6532-3.4768-4.4445 0-6-0.5185-6-2 0-1.3701 1.3646-1.996 4.3333-1.987 5.0293 0.015 5.4015-0.7044 1.5947-3.0818-1.8265-1.1406-2.4741-2.544-1.9443-4.2132 0.5607-1.7665-0.01-2.7572-1.928-3.3669-3.6826-1.1688-3.43-2.8844 0.5725-3.8889 1.8121-0.4548 3.8818-1.9238 4.5992-3.2643 1.1694-2.1851 0.6678-2.4613-4.8479-2.67-8.1224-0.3072-10.415-2.1587-6.957-5.6171 1.4176-1.4176 2.563-3.0274 2.5452-3.5774-0.018-0.55-3.6515-2.7122-8.0749-4.8047s-8.7532-4.9425-9.6217-6.3333c-1.8293-2.9291-3.498-3.1275-8.2176-0.9771-3.1932 1.4549-3.2687 1.7024-1.212 3.9749 1.7883 1.976 1.8829 2.7974 0.5126 4.4484-0.9244 1.1139-1.1925 2.0251-0.5959 2.0251 0.5967 0-0.08 0.8809-1.5034 1.9576-3.1589 2.3892-8.0758 2.6168-9.4236 0.436-0.546-0.8835-1.1885-3.394-1.4277-5.5789-0.2391-2.185-1.286-4.9132-2.3264-6.0628-1.0403-1.1495-2.5278-3.7638-3.3056-5.8095-0.7777-2.0456-3.2157-4.7444-5.4177-5.9975-2.202-1.253-4.0074-2.6401-4.0121-3.0825 0-0.4424 2.9916-0.516 6.6583-0.1637 4.436 0.4262 6.6667 0.1377 6.6667-0.8624 0-0.8266-0.5728-1.503-1.2728-1.503-2.2221 0-7.9936-6.6232-7.3142-8.3937 0.375-0.9771-1.962-3.3524-5.4962-5.5863-5.5453-3.5052-5.9215-4.0524-3.8348-5.5782 3.2757-2.3952 0.2404-5.7618-5.2453-5.8175-2.2935-0.023-5.3348-0.9233-6.7583-2-1.4234-1.0767-3.9734-1.9576-5.6666-1.9576s-3.0785-0.6836-3.0785-1.5191c0-1.5054 8.2883-1.0028 16 0.9703l3.3333 0.8529-3.3333-2.3765c-1.8333-1.3072-3.5689-2.5612-3.8567-2.7865-0.2878-0.2255 0.2606-1.3546 1.2188-2.5091 2.2954-2.7657-0.068-5.1961-7.3621-7.5727-3.0704-1.0004-5.3333-2.5837-5.3333-3.7318 0-1.3032-1.6065-2.1467-4.637-2.4346l-4.6369-0.4405 2.5839 2.8552c3.5291 3.8996 0.4377 5.9865-4.8317 3.2617-2.0236-1.0465-5.5468-1.9026-7.8293-1.9026-3.4766 0-4.0823 0.461-3.7329 2.8413 0.336 2.2883-0.621 3.1632-4.9161 4.4945-2.9334 0.9094-7.058 2.5832-9.1659 3.7199s-4.8079 1.7017-6 1.2557c-1.8751-0.7013-1.9226-0.5096-0.3516 1.4219 2.672 3.2855 1.0378 5.8517-5.7616 9.0479-7.678 3.609-8.3043 7.2509-1.0543 6.1305 2.75-0.4251 6.252-1.1484 7.7821-1.6075 2.0289-0.6086 3.3511 0.033 4.8839 2.3731 3.0108 4.5952 1.0858 7.2081-3.8762 5.2613-2.0844-0.8177-6.6398-1.8816-10.123-2.3641-5.3609-0.7427-6.3333-0.538-6.3333 1.3325 0 1.2155 0.75 2.0591 1.6666 1.875 4.0932-0.8226 9 1.6494 9 4.5342 0 2.744 5.7098 9.0171 8.2074 9.0171 0.6193 0 1.126 0.5632 1.126 1.2516s-2.8306 1.6761-6.2902 2.1949-7.1024 1.7556-8.0952 2.7484c-1.9856 1.9855-12.281 2.5114-12.281 0.6272 0-1.8372-4.9894-2.6902-9.018-1.5416l-3.6487 1.0402 3.5702 0.96c3.6594 0.984 6.3254 4.7193 3.3682 4.7193-0.9045 0-3.8835 1.2-6.62 2.6667-2.7364 1.4666-5.8964 2.6666-7.0221 2.6666-1.1256 0-2.392 0.9-2.8141 2s-1.9033 2-3.2915 2-2.524 0.85-2.524 1.889c0 1.0388-0.708 2.1248-1.5732 2.4132-2.4457 0.8152-0.1647 5.0312 2.722 5.0312 1.4112 0 2.9112 0.9 3.3334 2 0.4221 1.1 1.6863 2 2.8093 2 2.4489 0 2.4629 0.1392 0.4932 4.9132-0.8518 2.0644-1.4129 4.3202-1.2469 5.0129s-0.4422 2.6496-1.3516 4.3488c-1.42 2.6533-1.2911 3.3665 0.9135 5.052 2.5103 1.9192 2.5028 1.9807-0.3408 2.7825-1.9124 0.5394-2.6406 1.516-2.1273 2.8536 0.4471 1.1654-0.1865 2.5748-1.4841 3.301-1.4658 0.8202-1.977 2.1728-1.4494 3.8349 0.5774 1.8192 0.1802 2.5677-1.3626 2.5677-3.3702 0-7.3355-2.548-7.3355-4.7136 0-2.6986-0.4188-2.5352-5.8715 2.2923-2.6374 2.3349-4.7952 5.3349-4.7952 6.6667 0 1.5324-0.9789 2.4213-2.6666 2.4213-1.4667 0-2.6667 0.5509-2.6667 1.2243 0 2.7929 1.7463 5.4424 3.5871 5.4424 1.0826 0 1.7205 0.7437 1.4175 1.6528-0.3367 1.0102-2.384 1.4948-5.2662 1.2465-3.5777-0.3083-4.9272 0.1776-5.5934 2.0139-1.6205 4.4664-4.9463 9.7534-6.1355 9.7534-0.648 0-1.0653 1.6494-0.9272 3.6654 0.201 2.9346-0.3815 3.755-2.9225 4.1154-2.7902 0.3958-3.0722 0.047-2.3345-2.8929 0.7285-2.9024 0.312-3.4589-3.1587-4.2212-3.2706-0.7184-3.8695-1.4044-3.2928-3.7724 0.5391-2.2139-0.2448-3.4283-3.3345-5.1656-4.3102-2.4236-4.6744-4.0489-2.7586-12.31 0.9571-4.1272 0.7961-5.5559-0.7538-6.6892-1.6963-1.2404-1.5661-1.8755 0.9346-4.5598 2.3692-2.543 2.564-3.335 1.0553-4.2904-1.0176-0.6444-2.5694-1.1809-3.4486-1.1921-1.1182-0.015-1.5187-2.9245-1.3333-9.6871 0.252-9.189 0.1121-9.6884-2.8309-10.105-1.7028-0.2412-5.1727-1.848-7.7109-3.5704-2.5383-1.7225-6.3951-3.5228-8.5707-4.0007-4.544-0.998-5.3372-3.3236-1.1336-3.3236 2.1658 0 2.66-0.6202 2.1248-2.6666-0.5792-2.215-0.041-2.6667 3.1779-2.6667 3.7436 0 5.1524-1.7199 2.667-3.256-0.6645-0.4107-0.9161-1.8635-0.5592-3.2284 0.7253-2.7735-2.5179-4.1332-9.9323-4.164-3.4087-0.015-4.6412-0.7412-5.6195-3.3144-0.6893-1.8128-2.6331-3.6424-4.3196-4.0657-1.6865-0.4232-4.4851-2.84-6.219-5.3706-2.4113-3.5189-4.0913-4.6009-7.1441-4.6009-3.3967 0-3.744 0.298-2.3315 2 1.2369 1.4904 1.2585 2 0.084 2-0.8732 0-1.1559 0.7428-0.6343 1.6667 0.7528 1.3333 0.5818 1.3333-0.8547 0-0.9875-0.9167-4.8256-1.6704-8.5289-1.675-3.7033 0-8.4519-0.9044-10.552-2-2.1005-1.0954-4.5528-1.9917-5.4496-1.9917-1.7243 0-10.447-8.1355-14.428-13.457-1.901-2.5411-2.8134-2.8746-4.6666-1.7056-2.9551 1.864-2.9893 5.2148-0.051 4.9908 1.2389-0.095 3.6389 1.3038 5.3333 3.1074 3.0602 3.2575 3.0629 3.2922 0.4139 5.2356-1.4666 1.076-3.5666 1.7008-4.6666 1.3884-5.514-1.5658-6-1.4762-6 1.107 0 2.0333 1.028 2.7658 4.329 3.0841 5.2748 0.5087 6.7097 4.3951 4.3087 11.67-1.2813 3.8824-1.2702 5.1095 0.053 5.9275 1.9248 1.1896-0.9807 3.0479-7.0244 4.4925-2.6752 0.6395-3.6667 0.3703-3.6667-0.9954 0-1.0298-1.552-2.8891-3.449-4.132-1.897-1.243-3.146-2.563-2.7756-2.9334 2.2673-2.2672-5.3126-13.613-9.1763-13.736-2.023-0.064-8.5764 3.1277-8.5887 4.1829 0 0.4918-1.7603 1.2784-3.899 1.7483-4.0732 0.8945-5.8541 3.406-4.6467 6.5527 0.393 1.024-0.5221 2.7277-2.0333 3.7862-1.5113 1.0586-2.3516 2.3208-1.8674 2.8051 0.4843 0.4843-0.3841 0.8804-1.9298 0.8804-3.6019 0-5.0674-2.2735-1.9839-3.0777 1.8734-0.4887 1.7705-0.6443-0.5076-0.7676-1.5716-0.085-3.2028 0.7453-3.6249 1.8453-0.9004 2.3464-5.324 2.7519-4.5456 0.4167 0.4639-1.3918-0.4481-2.7871-5.1722-7.9131-5.1165-5.5519-8.1435-7.1463-12.827-6.7564-5.294 0.4405-6.7063 3.1501-2.7855 5.3443 5.6075 3.1381-4.6771 6.7204-12.183 4.2433-3.9222-1.2944-4.6713-2.1664-4.6713-5.4383 0-3.4273-0.4744-3.8965-3.9394-3.8965-2.4607 0-5.2356 1.2961-7.3926 3.4532-1.9803 1.9804-4.3025 3.1273-5.4444 2.6892-1.1738-0.4504-2.3471 0.1845-2.8581 1.5468-0.4768 1.2709-1.7814 2.9959-2.8992 3.8332-1.7183 1.2872-1.7541 1.8575-0.2319 3.6916 1.5254 1.8381 1.4668 2.5379-0.3837 4.5827-1.2012 1.3273-2.184 3.116-2.184 3.9749s-0.5583 1.5617-1.2406 1.5617-1.4323 1.35-1.6667 3c-0.305 2.148-1.4674 3.1199-4.0927 3.4219-2.0167 0.2321-3.6667 1.1377-3.6667 2.0127 0 0.8748-1.2584 2.3765-2.7965 3.337-1.5381 0.9607-2.4433 2.0998-2.0115 2.5315 1.3498 1.3497-2.0533 4.3636-4.9272 4.3636-1.5082 0-4.6441 0.6877-6.9688 1.5284-8.8389 3.1961-16.543-3.2312-9.8896-8.2501l3.0524-2.3026-2.896-1.8085c-1.5928-0.9929-2.8961-2.5327-2.8961-3.4199 0-0.887-1.0299-2.1893-2.2888-2.8938-2.006-1.1226-2.067-1.6955-0.4934-4.6356 1.5954-2.9812 1.4791-3.757-1.0445-6.9652-1.562-1.9858-2.8399-4.9295-2.8399-6.5418 0-5-1.5263-4.832-6.5185 0.7175-4.1339 4.5953-5.8049 5.4649-11.815 6.1487-3.85 0.4378-7 0.3916-7-0.1027 0-0.4947 0.9623-2.3679 2.1384-4.1629 1.7227-2.6291 1.8554-4.0754 0.6827-7.4395-1.5436-4.4279-0.9642-6.7319 1.6128-6.4137 4.34 0.5357 7.5661-0.32 7.5661-2.0068 0-1.5383-0.731-1.6083-3.9813-0.3815-6.4212 2.4237-7.6146 0.036-4.8861-9.7784 1.2415-4.4655 1.9092-8.6824 1.4837-9.3709-1.4735-2.3846-3.2829-1.2372-3.2829 2.0812 0 2.4106-0.7164 3.3333-2.588 3.3333-3.7261 0-4.756 2.5441-1.881 4.6464 1.3556 0.9912 2.1657 2.0329 1.8002 2.3148-3.1945 2.4639-8.2798 5.0388-9.951 5.0388-1.1258 0-2.0469 0.6-2.0469 1.3333 0 0.7334 1.8394 1.3334 4.0876 1.3334 5.946 0 9.2457 2.2097 9.2457 6.1914 0 2.9939-0.4246 3.3244-3.3333 2.5944-3.2662-0.8198-4.6324 0.9206-2 2.5475 5.0675 3.1319-5.0143 9.9769-16.192 10.994-6.8357 0.6217-7.7964 0.3731-10.48-2.7135-1.625-1.8689-4.367-3.7525-6.0933-4.1858-2.2638-0.5682-3.5338-2.255-4.5561-6.0514-0.7795-2.895-2.001-5.6244-2.7144-6.0653s-1.2971-1.9663-1.2971-3.3896c0-1.4235-0.45-2.5776-1-2.5649-2.0207 0.047-6.8981 6.3349-9.0128 11.62-1.8293 4.5719-3.1668 5.7916-8.4145 7.6736-10.536 3.7788-13.311 3.9469-15.904 0.9633-2.1475-2.4717-2.9917-2.5736-10.467-1.264-9.3493 1.638-12.536 0.8714-12.536-3.0161 0-1.5127-0.9179-3.1025-2.0397-3.5331-1.1418-0.4381-1.7422-1.7404-1.3638-2.9581 1.0875-3.5-1.2216-5.7603-5.3964-5.2823-2.4796 0.2839-4.0116 1.3232-4.3162 2.9282-0.8997 4.7393-7.0438 10.179-11.498 10.179-3.6664 0-4.4621-0.7012-6.5555-5.7777-1.3105-3.1779-3.2071-5.7779-4.2147-5.7779-1.0077 0-1.5592 0.4416-1.2257 0.9814 0.3336 0.5396-1.2189 1.6174-3.4499 2.3952-3.1998 1.1154-5.028 0.9506-8.6589-0.7808l-4.6027-2.1948 3.6606-2.4331 3.6605-2.4329-4.6666 0.8197c-2.5667 0.4508-8.8667 1.6549-14 2.6759-13.038 2.593-13.522 2.511-14.625-2.475-0.5269-2.3833-1.2307-3.647-1.5639-2.8082-0.3333 0.8389-1.7772 1.2189-3.2087 0.8445-2.5786-0.6746-2.6028-10.234-2.6028-1030.5 0-979.88 0.1133-1029.8 2.3334-1029.9 1.9952-0.08 1.9469-0.2597-0.3334-1.2396-1.4881-0.6394 1363.7-1.1873 3088.9-1.2396 2155.2-0.065 3091.8 0.3298 3092.5 1.3044 0.5965 0.965 1.4161 0.9399 2.6461-0.081 1.2754-1.0584 20.482-1.296 67.548-0.8354 36.171 0.3539 66.666 0.6109 67.766 0.5711 1.1001-0.04 169.8-0.2993 374.89-0.5766l372.89-0.5041-2.5523 5.2828c-1.404 2.9056-2.5525 5.8836-2.5525 6.6178 0 3.5572-3.3179 8.1272-5.9003 8.1272-4.1009 0-12.51 4.8625-19.911 11.512-3.5625 3.2015-7.1625 5.8122-8 5.8016-0.8373-0.011-5.5484 1.291-10.469 2.8924-8.2284 2.6779-9.5442 2.7683-16.388 1.1265-6.6284-1.5901-8.2735-1.5226-15.053 0.6179-5.1265 1.6185-12.835 2.5271-23.612 2.7829-9.9474 0.2362-18.476 1.178-22.545 2.4898-3.5998 1.1604-8.8824 2.1098-11.739 2.1098s-10.529 1.5-17.049 3.3333c-6.5205 1.8334-14.204 3.3334-17.076 3.3334-4.821 0-26.136 6.3393-37.955 11.288-3.6647 1.5345-5.7224 1.736-7.579 0.7424-3.7509-2.0075-10.008-1.6796-22.724 1.1907-6.2334 1.4069-15.357 3.2178-20.275 4.024-10.485 1.719-32.449 12.133-39.986 18.959-2.7099 2.4544-6.1639 6.8611-7.6754 9.7927-3.3329 6.4634-34.298 38.013-37.276 37.98-1.1667-0.013-7.5211-0.654-14.121-1.4244-6.6001-0.7704-17.7-1.6138-24.667-1.8743-7.447-0.2783-14.684-1.3291-17.563-2.55-3.9227-1.6637-7.1033-1.8603-16-0.9893-6.4589 0.6324-15.629 0.5442-21.922-0.2108-9.6512-1.158-11.875-0.977-20.62 1.6793-19.94 6.0565-27.319 11.501-43.872 32.372-3.9165 4.9382-8.219 9.3269-9.5608 9.7528-1.342 0.4259-4.995 4.1914-8.1181 8.3679-3.1231 4.1764-7.0243 9.3876-8.6695 11.58-6.0437 8.0559-7.3229 11.73-7.7906 22.374-0.6122 13.936-1.022 14.908-7.6023 18.041-4.9378 2.3509-10.5 6.6191-23.885 18.327-1.9816 1.7333-4.2504 5.5562-5.0418 8.4954-1.8516 6.8765-8.9452 12.58-15.346 12.34-3.763-0.1415-4.9692 0.5692-7.2612 4.2774-1.5115 2.4458-2.7484 5.8115-2.7484 7.4792 0 1.6781-2.7638 6.2673-6.1888 10.276-3.4041 3.9843-6.5769 9.1405-7.0508 11.458-1.0585 5.1746-8.0368 10.252-14.091 10.252-4.8279 0-12.401 4.9547-18.898 12.364-3.3258 3.7931-4.4079 6.4739-5.0702 12.562-0.4628 4.257-1.1025 9.0135-1.4211 10.57-0.8878 4.3375-12.315 15.511-21.676 21.195-8.2695 5.0211-16.272 12.663-16.272 15.539 0 2.2178-10.864 15.21-14.667 17.54-1.8334 1.1233-7.4455 6.0333-12.472 10.911l-9.1381 8.8686-11.189-0.9321c-9.1771-0.7644-11.782-0.5441-14.482 1.2252-1.8108 1.1864-5.1433 2.1572-7.4055 2.1572s-5.9651 0.9576-8.2284 2.1281c-2.9564 1.5287-4.9093 1.7685-6.9339 0.8514-9.6997-4.3938-17.185-5.3036-22.756-2.7655-2.463 1.1222-4.2597 1.1539-6.5394 0.1151-5.6051-2.5539-26.756 1.1853-36.19 6.3978-4.3999 2.4312-8.3 4.7656-8.6666 5.1876-0.3667 0.422-2.9167 2.4444-5.6667 4.4942s-5 4.5229-5 5.4958-0.8346 2.4617-1.8549 3.3084c-1.6884 1.4012-3.3752 7.0495-3.6194 12.12-0.2438 5.0645-4.5334 15.346-8.6553 20.746-2.4954 3.2691-4.5371 6.632-4.5371 7.4731s-1.3967 3.3859-3.1035 5.6551c-3.7572 4.9946-7.5631 12.542-7.5631 14.997 0 0.9873-0.5251 1.7951-1.1667 1.7951-0.6417 0-1.5252 1.65-1.9636 3.6667-0.4383 2.0166-2.9316 6.0666-5.5409 9-2.6092 2.9333-5.0912 6.6847-5.5152 8.3364-0.424 1.6518-1.9056 5.2286-3.2923 7.9486s-2.5213 6.1953-2.5213 7.7229c0 1.792-2.4837 4.6487-7 8.0514-3.8501 2.9007-14.166 12.299-22.925 20.886-18.105 17.749-21.968 20.109-26.461 16.171-1.6212-1.421-5.4485-4.251-8.505-6.2889-4.5179-3.0122-6.0599-3.4361-8.2457-2.2664-4.5002 2.4084-6.7425 1.6432-8.6645-2.9568-2.7431-6.5652-9.8096-12.016-14.39-11.1-2.0382 0.4077-4.0644 0.1608-4.5027-0.5485-0.4384-0.7093-2.4417-1.2896-4.4517-1.2896-2.0102 0-4.2247-0.553-4.9215-1.229-0.6965-0.6759-3.3257-1.7535-5.8426-2.3945-3.291-0.8384-4.9205-2.1993-5.803-4.8468-0.6748-2.0247-2.6656-5.1198-4.424-6.8782-1.7583-1.7583-3.1969-3.7279-3.1969-4.3769 0-1.9604-6.4664-4.2746-11.944-4.2746h-5.1523l-0.8193-8.3333c-0.4507-4.5834-1.0439-11.633-1.3181-15.667-0.2744-4.0333-1.2342-10.308-2.1331-13.945-1.2611-5.1022-1.2768-7.5997-0.068-10.941 1.2792-3.5376 1.1879-5.0596-0.4993-8.3224-1.1358-2.1961-2.065-5.1985-2.065-6.6719s-1.383-4.0532-3.0734-5.7329c-1.6903-1.6797-4.479-6.1741-6.1968-9.9876-2.9872-6.6313-3.0246-7.0845-0.856-10.394 2.509-3.8293 1.7565-8.6723-1.3474-8.6723-1.3376 0-1.8387-1.1488-1.5768-3.6146 0.3286-3.0947-0.4795-4.0518-5.6162-6.6529-3.3-1.6711-6.9456-3.0445-8.101-3.052-1.1554-0.01-3.5101-1.5138-5.2324-3.3471-1.7222-1.8334-3.6672-3.3334-4.322-3.3334-0.6546 0-3.1506-2.0784-5.5464-4.6187-3.864-4.097-4.9081-4.5291-9.2438-3.8255-3.0472 0.4945-4.8879 0.2621-4.8879-0.617 0-1.8196-7.576-5.6054-11.217-5.6054-1.5443 0-3.5916-1.2552-4.5496-2.7892-1.2131-1.9425-2.6259-2.57-4.6542-2.0671-2.1928 0.5438-3.6356-0.3022-5.8406-3.4248-2.666-3.7751-8.2387-6.7818-16.01-8.6377-2.4428-0.5835-2.8071-1.3556-2.1619-4.5821 0.6634-3.3164 0.4326-3.7485-1.5881-2.9731-1.466 0.5625-2.944 0.1145-3.8899-1.1792-0.8392-1.1475-3.5484-3.2164-6.0204-4.5975-2.4721-1.381-4.6501-3.5694-4.84-4.8631-0.4941-3.3667-3.1794-6.2196-5.8542-6.2196-1.2647 0-3.6831-1.2-5.3742-2.6666-1.691-1.4667-5.2329-2.7581-7.8706-2.8698-7.5692-0.3205-7.9338-0.4013-9.6782-2.1457-0.9088-0.9082-2.4318-1.6512-3.3852-1.6512-0.9533 0-1.7333-0.6312-1.7333-1.4027s-1.6915-1.9923-3.7589-2.7131c-2.1192-0.7387-4.3003-2.8039-5-4.7342-1.8123-4.9994-10.389-7.7702-15.76-5.091-4.6059 2.2977-6.0188 1.5088-3.764-2.1015 2.4417-3.91 1.9647-6.9423-1.7172-10.913-1.9744-2.1294-3.3333-5.1827-3.3333-7.4898 0-4.6033-1.7176-6.2059-7.9126-7.383-2.5185-0.4786-5.5185-1.6898-6.6666-2.6916-4.3318-3.7797-19.79-11.202-24.836-11.926-6.026-0.8642-13.851-3.3695-16.17-5.1772-0.8722-0.6798-3.5722-1.0428-6-0.8065-3.6344 0.3535-4.4382-0.042-4.5501-2.2373-0.2384-4.6762-0.5004-5.2505-4.428-9.7052-3.4308-3.8911-4.8516-4.465-12.92-5.2185-7.4952-0.6999-10.077-1.6185-14.904-5.3033-3.3026-2.5208-6.5135-4.0349-7.3922-3.4855-0.8542 0.5343-6.9532 1.3342-13.553 1.7778-13.571 0.9119-21.803 2.8005-33.227 7.6225-6.9168 2.9197-9.1107 3.229-17.733 2.5001-5.4117-0.4574-11.16-1.5414-12.773-2.4087-4.6023-2.474-11.902-2.2597-15.447 0.4534-3.9118 2.9945-5.7838 3.0386-11.152 0.2628-2.4963-1.2909-8.2816-2.3279-14.267-2.5573-5.5375-0.2122-10.558-0.4351-11.158-0.4953-0.5995-0.06-0.7133-1.2958-0.2531-2.7457 1.3268-4.1804-3.0617-7.6049-11.139-8.6924-4.9815-0.6707-8.1393-0.4325-10.416 0.7858-2.6657 1.4266-3.7711 1.4332-6.0083 0.036-1.9664-1.2281-3.1496-1.3042-4.1844-0.2694-1.8864 1.8864-8.4946 1.8594-9.6682-0.04-1.3187-2.1336 2.0016-3.8069 7.6005-3.8305 4.6113-0.02 4.9127-0.3022 6.3333-5.9442 1.9047-7.5639 1.9235-7.4095-0.9084-7.4095-1.32 0-3.12-0.72-4-1.6-1.2444-1.2445-1.9556-1.2445-3.2 0-0.88 0.88-3.5645 1.6-5.9657 1.6-3.5023 0-4.7749 0.7911-6.4343 4-2.7269 5.2733-5.3741 5.0551-8.0893-0.6667-1.218-2.5667-3.0923-4.6667-4.1652-4.6667-1.0728 0-3.7505-1.8-5.9505-4s-4.8742-4-5.9424-4c-1.0684 0-3.1298-2.0122-4.5808-4.4717-1.5255-2.5853-4.8812-5.483-7.9551-6.8691-2.9241-1.3186-5.3167-3.126-5.3167-4.0163 0-1.2256-10.941-6.2913-17.333-8.0256-0.3667-0.1-1.5667-0.5682-2.6667-1.0416s-6.2573-1.097-11.461-1.3859c-5.3613-0.2976-10.85-1.4115-12.667-2.5706-4.7778-3.0482-25.87-4.2074-32.702-1.7971-2.9636 1.0456-10.74 2.3285-17.28 2.8509-7.7026 0.6153-15.884 2.3499-23.225 4.9242-16.212 5.6851-16.483 5.7093-26.956 2.4038-7.431-2.3453-11.228-2.8192-17.41-2.1731-6.6154 0.6915-8.5164 0.392-11.643-1.8341-2.0549-1.4632-4.6582-2.6604-5.7852-2.6604-1.1268 0-2.4196-0.6-2.8728-1.3334-0.4532-0.7333-5.7425-1.3333-11.754-1.3333s-12.924-0.5718-15.361-1.2707c-5.2519-1.5062-24.193 1.4133-33.552 5.1716-3.3 1.3252-10.006 3.3615-14.902 4.5251-11.495 2.732-35.569 14.684-42.798 21.248-8.8042 7.994-19.041 15.659-20.912 15.659-0.9365 0-3.7921 1.8345-6.3457 4.0766-3.5924 3.1542-5.4556 3.8981-8.2342 3.2878-2.7481-0.6035-4.3365 0-6.7654 2.5901-3.9892 4.2462-5.7892 4.2564-8.0428 0.045-2.7496-5.1377-6.1472-4.225-8.2987 2.2293-1.8683 5.605-4.6892 7.7197-17.701 13.27-2.2 0.9385-5.6012 3.1505-7.5583 4.9156-4.6099 4.1576-6.8763 2.7694-5.8075-3.557 0.6884-4.0743-1.1262-10.708-3.982-14.556-0.92-1.2399-5.0144 1.9692-7.365 5.7727-3.7039 5.993-3.0648 15.209 1.1629 16.773 1.5857 0.5866 2.8832 1.3175 2.8832 1.6243 0 0.3067-2.4477 4.2231-5.4393 8.7032-4.9432 7.4025-6.1112 8.3408-12.805 10.287-6.1713 1.7941-8.3148 1.8752-13.224 0.5008-9.0614-2.537-18.135-0.7151-33.199 6.6664-7.3333 3.5934-18.019 7.8133-23.746 9.3777-9.4331 2.5766-19.153 6.9924-20.947 9.5166-0.9172 1.2905-13.07 6.4769-15.177 6.4769-0.907 0-2.9532 1.5-4.5474 3.3333-1.594 1.8334-3.694 3.3334-4.6666 3.3334s-3.1287 1.5645-4.7914 3.4768c-2.3978 2.7577-3.8232 3.3168-6.8917 2.7031-3.3071-0.6614-4.1663-0.1984-5.9183 3.1898-1.1273 2.18-2.6197 3.9636-3.3164 3.9636-0.6968 0-3.2313 2.2321-5.6324 4.9603-16.394 18.627-18.71 20.507-35.128 28.519-8.8527 4.3198-17.458 7.8542-19.123 7.8542s-4.5528-1.2-6.4173-2.6666c-1.8647-1.4667-4.7739-2.6667-6.4649-2.6667-1.6912 0-3.4208-0.5597-3.8436-1.2437-0.4227-0.6841-5.5779-1.6633-11.456-2.176-7.0245-0.6128-11.709-1.7359-13.668-3.277-5.8575-4.6075-13.565-5.9408-24.105-4.1698-9.4012 1.5797-21.673 0.4063-25.493-2.4376-3.3163-2.4687-11.008-2.4289-14.809 0.077-2.5007 1.6486-6.2156 2.5462-10.561 2.5519-3.7027 0-7.9464 0.8795-9.4804 1.9539-3.6078 2.527-13.604 2.8512-24.483 0.7939-9.6488-1.8247-23.703-0.9581-29.172 1.7987-4.5573 2.2973-13.238 3.7249-24.828 4.083-6.3406 0.196-11.411 1.2436-15.814 3.2675-3.8573 1.7732-8.4446 2.8326-11.333 2.6174-2.6692-0.1989-7.2853 0.3474-10.258 1.214s-10.92 1.8254-17.661 2.1306c-10.592 0.4796-13.225 1.1024-19.401 4.5876-9.0549 5.1102-27.206 11.251-30.796 10.418-1.5057-0.3492-5.7376-0.083-9.4042 0.5911-9.1371 1.6803-9.1354 1.6797-13.241 4.3698-5.2852 3.4629-11.876 4.2521-14.194 1.6996-3.5936-3.9567-4.5733-5.5272-5.9284-9.5034-2.2856-6.707-4.9636-5.5768-12.406 5.2359-7.4669 10.849-8.1081 12.553-4.6157 12.27 3.2301-0.2621 3.929 4.5015 0.7812 5.3247-1.376 0.3599-3.0782 1.9673-3.7827 3.5722-1.0628 2.4214-2.7556 3.0618-9.9475 3.7636-10.964 1.0697-13.825-0.2399-12.61-5.7719 0.6203-2.8237 0.442-3.7941-0.5811-3.1619-0.8117 0.5017-1.5232 1.9268-1.581 3.1668-0.065 1.3882-0.3638 1.6142-0.7779 0.588-1.2396-3.0721-3.8867-1.708-5.1745 2.6667-0.986 3.3491-2.1112 4.4294-4.9546 4.7564-2.427 0.2791-4.3321 1.6862-5.5985 4.1353-3.6735 7.1038-16.448 12.078-19.055 7.4202-1.9038-3.4018-12.345-3.8904-14.592-0.6828-1.068 1.5246-4.1995 2.7918-8.2896 3.3544-3.8605 0.5309-7.528 1.9589-8.8867 3.4602-1.4712 1.6258-4.0764 2.5563-7.157 2.5563-3.3966 0-6.223 1.1562-9.46 3.8699-2.539 2.1285-4.2471 4.2477-3.7958 4.7095 0.8534 0.8729 15.011 5.3049 24.846 7.7782 6.3938 1.6078 7.1562 3.693 2.4724 6.762-2.2976 1.5054-3.3806 3.7006-3.8579 7.82-0.682 5.8865-1.0471 7.5542-2.7859 12.727-0.7884 2.3454-2.0237 3-5.6617 3-2.5593 0-8.8483 0.6928-13.976 1.5396-10.637 1.7566-13.623 4.3649-16.055 14.022-0.9857 3.9148-2.1677 5.7715-3.6741 5.7715-1.2215 0-3.2841 1.8-4.5837 4-2.0904 3.5388-4.3722 4.7239-7.0594 3.6666-0.466-0.1833-1.3485 1.0216-1.961 2.6775-0.6127 1.656-2.5792 3.6786-4.3704 4.4946-2.7756 1.2647-3.7338 1.017-6.488-1.6775-4.1948-4.1036-9.2456-13.018-8.2702-14.597 1.2728-2.0593-2.9528-1.3722-4.7298 0.769-0.913 1.1-2.4403 2-3.394 2-0.9539 0-3.5386 1.8043-5.7439 4.0096-3.8263 3.8263-4.0493 3.8847-4.8768 1.2777-0.608-1.916-1.6056-2.4977-3.3395-1.9474-2.2136 0.7026-2.4102 0.1501-1.8788-5.2776l0.5938-6.0623h-6.1334c-4.7301 0-6.706-0.6864-8.636-3-2.758-3.306-3.3242-7.0564-1.2581-8.3333 0.7333-0.4533 1.3333-1.6939 1.3333-2.757 0-1.5623-1.4289-1.7651-7.4502-1.0574-9.3859 1.1032-14.426 2.8929-21.435 7.6119-3.0533 2.0558-7.8533 3.9301-10.667 4.1651-2.8132 0.235-6.015 0.7395-7.115 1.121s-3.512 1.0205-5.3599 1.4201c-3.0171 0.6523-4.7656 1.9718-10.29 7.7656-3.3039 3.4646-6.4291 5.8468-10.13 7.7214-2.0792 1.0532-4.6227 3.5437-5.652 5.5343-1.0295 1.9906-3.0222 3.9845-4.4283 4.4308-1.4063 0.4463-3.4579 3.0635-4.5592 5.816-1.4983 3.7446-3.7109 5.9345-8.7879 8.6978-7.8572 4.2764-9.7522 7.064-8.6269 12.69 0.622 3.1096-0.1515 5.6061-3.3448 10.796-2.2847 3.713-4.1667 8.0918-4.1824 9.7308-0.033 3.4846-9.1512 10.752-22.95 18.292-3.2262 1.7628-5.2814 4.0054-5.8384 6.3709-0.473 2.0077-2.1415 5.1504-3.7082 6.9838-3.6341 4.2529-7.4748 11.216-7.4748 13.552 0 0.99377-1.2 2.5563-2.6666 3.4722-1.7194 1.0738-2.6667 3.1094-2.6667 5.7303 0 5.4694-2.6633 15.967-4.8737 19.209-0.9862 1.4465-1.793 4.3158-1.793 6.3762s-0.8842 5.8624-1.9649 8.4488c-1.3411 3.2097-1.8935 8.8048-1.7397 17.624 0.1517 8.7131-0.5064 15.492-2.0212 20.815-1.2355 4.3414-2.6498 11.831-3.143 16.645-0.493 4.8131-1.7428 9.5973-2.7769 10.632-1.0343 1.0342-1.5881 3.1442-1.2307 4.6888 0.6324 2.7331-0.8521 18.789-2.2321 24.142-0.378 1.4667-0.7333 3.4167-0.7895 4.3333-0.056 0.91666-1.2458 1.6667-2.6438 1.6667-1.4351 0-6.304 4.0636-11.183 9.3333-5.2724 5.6948-9.704 9.3333-11.367 9.3333-3.5919 0-8.2411 6.6835-8.2411 11.847 0 4.2386-2.9692 6.063-8.8556 5.441-5.6827-0.60048-6.0821-0.17158-5.1237 5.5013 0.805 4.7646 0.3974 6.1863-3.2162 11.218-4.2633 5.9366-5.128 9.2233-2.8045 10.659 2.7479 1.6983 1.1641 5.6674-3.9852 9.9876-5.2532 4.4073-5.3084 4.5487-4.4913 11.501 0.7902 6.7235 0.6753 7.0772-2.5634 7.89-1.8649 0.46806-5.0046 2.6623-6.9772 4.8761l-3.5862 4.0251-3.9622-4.8067c-4.9432-5.997-6.4738-6.0826-5.537-0.30949 0.4272 2.633 0.116 4.8764-0.7506 5.412-2.1838 1.3497-1.7984 8.6298 0.583 11.011 1.8621 1.8621 1.8621 2.2855 0 4.3431-2.6876 2.9698-2.6412 7.5628 0.087 8.6097 3.0764 1.1805 0.053 4.5122-4.581 5.0477-3.2248 0.37269-3.65 1.0754-4.408 7.2852-0.4614 3.78-1.8182 8.8359-3.0151 11.235-1.1971 2.3994-1.8285 5.4585-1.4033 6.798 0.425 1.3395-0.017 3.3128-0.9848 4.3851-0.9668 1.0723-2.5315 2.8705-3.4771 3.9959-2.1953 2.6129-7.4629 2.6383-9.6141 0.0463-0.913-1.1-2.7864-2-4.1632-2-1.8132 0-2.5035-0.96497-2.5035-3.5 0-3.1936 0.3575-3.4285 4.0832-2.6833 3.9395 0.78789 4.0687 0.66469 3.6667-3.5-0.3527-3.6555-1.0096-4.3843-4.2883-4.7584-8.7788-1.0015-19.986 19.373-14.914 27.113 2.059 3.1425 2.0153 3.3041-1.1052 4.0873-1.787 0.44848-3.5631 1.6342-3.9471 2.6349-0.384 1.0007-3.1275 3.0587-6.0965 4.5734-2.9691 1.5147-5.3983 3.2776-5.3983 3.9176 0 2.4866-3.9869 2.5096-7.1252 0.0411-1.8125-1.4257-5.1407-2.5922-7.396-2.5922-3.6147 0-4.5141-0.82954-7.5908-7-1.9196-3.85-6.2108-9.8029-9.536-13.229-5.5605-5.7288-6.0663-6.8162-6.3013-13.548-0.1628-4.662-1.1848-8.6938-2.815-11.105-1.4077-2.0818-3.249-5.3551-4.0918-7.274-6.1584-14.022-32.749-34.764-52.572-41.011-7.1749-2.2608-9.2859-1.9198-20.718 3.3468-13.304 6.1295-23.374 15.662-26.578 25.161-1.2351 3.6621-3.1339 7.1696-4.2195 7.7945-3.49 2.0088-5.6978 9.7619-7.732 27.152-1.0932 9.3455-2.6352 18.954-3.4265 21.352-1.3028 3.9474-1.9381 4.3598-6.7157 4.3598-5.99 0-8.7414 1.5247-21.85 12.109-14.318 11.56-19.776 17.377-22.437 23.908-1.3407 3.2907-3.4991 8.0831-4.7965 10.65-1.2975 2.5667-3.2007 7.5846-4.2294 11.151-1.3474 4.6722-3.2794 7.6008-6.9133 10.48-2.7737 2.1974-5.9429 6.1795-7.0424 8.849-2.6921 6.5359-14.14 17.082-20.666 19.037-2.9041 0.8701-5.9465 2.3849-6.7609 3.3662s-2.7908 1.7842-4.3919 1.7842c-1.601 0-4.9441 1.5-7.429 3.3333-2.485 1.8333-5.3255 3.3333-6.3122 3.3333-2.5873 0-11.563 4.7732-13.607 7.2359-0.9575 1.1536-2.9248 2.0975-4.3719 2.0975-1.4469 0-4.2234 0.8303-6.17 1.8452-1.9465 1.0148-5.8401 2.9648-8.6526 4.3333-12.297 5.9835-26.22 20.058-26.22 26.506 0 3.756-4.3113 9.2775-9.1154 11.674-9.7036 4.8408-18.862 13.096-21.606 19.474-1.6589 3.8563-5.2027 8.523-8.8019 11.591-3.3136 2.8245-7.5033 7.6586-9.3105 10.742-1.8072 3.0838-4.6919 6.5281-6.4104 7.6541-2.1183 1.3879-3.6431 4.3231-4.735 9.1142-3.3314 14.62-16.256 31.734-23.965 31.734-1.3175 0-3.1423 0.9-4.0552 2-0.913 1.1-2.713 2-4 2-1.2871 0-3.0871 0.9-4 2-0.913 1.1-2.402 2-3.309 2s-4.2836 2.0942-7.5034 4.6537c-3.2199 2.5596-6.359 4.6596-6.9758 4.6667-0.6166 0.01-4.5428 2.4129-8.7245 5.3463-4.1817 2.9333-8.1771 5.3466-8.8785 5.3629-0.7015 0.016-2.7755 1.203-4.6088 2.6371-1.8334 1.434-4.5651 2.6207-6.0707 2.637-3.4065 0.037-13.929-7.5469-13.929-10.039 0-1.0108-1.2564-2.5102-2.7922-3.332-1.5356-0.8219-3.9637-4.143-5.3957-7.3803s-3.3255-5.9753-4.2079-6.0846c-7.9229-0.9808-21.141-0.4992-24.938 0.9088-2.5666 0.9517-5.8666 2.1733-7.3333 2.7146-3.0495 1.1255-4.3808 1.4205-7.6952 1.7055-1.2991 0.1117-3.0757 1.8531-3.9481 3.8698-0.8724 2.0166-2.9596 5.3627-4.6382 7.4356-1.6785 2.0729-3.0518 4.6229-3.0518 5.6667 0 1.0786-1.2948 1.8984-3 1.8993-1.65 9e-4 -4.8 1.5709-7 3.4889s-6.1 4.8417-8.6667 6.4971-6.1667 5.4449-8 8.421-4.4009 5.7001-5.7057 6.0533c-1.3047 0.3532-5.6398-0.5063-9.6334-1.9099-3.9934-1.4036-9.5498-2.552-12.347-2.552s-8.5419-0.9-12.765-2c-14.229-3.7063-15.434-3.3188-27.478 8.8388-5.9055 5.9614-10.737 11.341-10.737 11.956 0 0.6141-2.7 4.1567-6 7.8723s-6 7.8061-6 9.0899c0 1.2839-2.9142 6.2139-6.4761 10.956-3.5619 4.7416-6.8125 10.421-7.2236 12.621-1.6304 8.7252-3.4961 14.305-5.5377 16.561-1.1776 1.3012-2.9166 5.3551-3.8643 9.0087-2.1364 8.2362-18.6 34.229-22.93 36.202-1.7494 0.7971-4.258 3.5379-5.5748 6.0907-1.3166 2.5526-5.0009 6.3888-8.187 8.5244-3.1863 2.1357-7.0863 6.0149-8.6667 8.6205-1.5805 2.6056-6.0236 9.378-9.8736 15.05-3.85 5.6718-7 11.056-7 11.965 0 0.9089-3.5915 5.1997-7.9811 9.5353l-7.981 7.8827-9.019-0.8294c-4.9604-0.4561-11.282-1.9048-14.048-3.219-3.6623-1.7403-6.5404-2.1482-10.59-1.5007-7.7644 1.2416-18.645 4.8293-21.153 6.9749-1.1577 0.9904-3.0877 1.8008-4.2889 1.8008s-4.1939 1.95-6.6504 4.3334c-2.4566 2.3833-5.5762 4.9669-6.9324 5.7413-1.3563 0.7744-3.4587 4.4532-4.672 8.1752-1.2134 3.722-4.7139 9.9168-7.7787 13.766-3.0649 3.8493-5.5727 8.4376-5.5727 10.196 0 1.7585-1.7921 6.7476-3.9826 11.087-4.4338 8.7833-7.5472 24.933-8.7463 45.368-1.0569 18.011-1.7488 21.691-3.9216 20.857-1.0016-0.3844-2.5952 0.2339-3.5413 1.3738-0.946 1.14-4.8899 3.8616-8.7642 6.0481-3.8741 2.1864-7.044 4.5863-7.044 5.3328 0 0.8552-2.2422 1.0212-6.0612 0.4485-5.1668-0.7748-6.9865-0.3689-12.333 2.7507-3.4496 2.0128-6.8721 4.3805-7.6055 5.2615-0.7333 0.8809-4.3333 2.6846-8 4.0082-3.6666 1.3238-8.7666 3.9759-11.333 5.8939s-6.4371 4.6011-8.6009 5.9623c-5.2956 3.3314-22.066 20.441-22.066 22.513 0 0.9091-1.2 4.0065-2.6666 6.8833-1.4667 2.8768-2.6667 6.3966-2.6667 7.8218 0 3.2441-9.0972 12.037-14.347 13.867-5.2924 1.845-8.2704 0.072-5.1389-3.0598 2.6174-2.6175 1.9666-4.0212-1.2856-2.7731-1.6524 0.634-2.0198 1.8537-1.4364 4.7704 0.6317 3.1581 0.1106 4.4477-2.6839 6.6461-1.9072 1.5002-4.1387 2.7276-4.9588 2.7276-0.82 0-4.4341 2.0924-8.0311 4.6499-3.597 2.5573-9.7578 5.8537-13.691 7.3252-8.3359 3.1188-19.667 8.7011-24.428 12.034-1.8333 1.2836-6.6333 3.3844-10.667 4.6683-12.768 4.0645-26.945 10.828-39.554 18.868-3.7884 2.4159-11.588 6.2547-17.333 8.5307-5.7451 2.276-12.246 4.9565-14.446 5.9567-2.2 1.0001-7.6 2.8286-12 4.0632-23.126 6.4889-54 30.062-54 41.23 0 1.8888-0.9497 4.8837-2.1105 6.6553-1.2302 1.8775-1.751 4.3546-1.2483 5.938 0.6113 1.9263-0.132 3.6386-2.5561 5.8848-1.8802 1.7424-3.4184 4.3992-3.4184 5.904s-0.6024 2.9368-1.3387 3.1823-2.3363 4.0455-3.5557 8.4444c-1.2194 4.3991-3.317 9.0716-4.6614 10.384-1.3442 1.3119-2.4442 4.1189-2.4442 6.238 0 3.6767-2.3258 7.2631-5.3676 8.2769-0.7784 0.2595-1.5195 3.0847-1.6468 6.2782-0.1763 4.4204-0.9582 6.2824-3.2754 7.8006-2.3278 1.5254-3.0436 3.2459-3.0436 7.317 0 3.0826-1.6174 8.7698-3.8432 13.513-2.1138 4.5049-4.1882 10.891-4.6097 14.191-3.4808 27.249-3.4381 27.084-10.888 42.011-4.0292 8.073-7.3257 15.453-7.3257 16.4 0 3.5723-4.1375 9.5891-6.594 9.5891-2.05 0-2.9278 1.8204-4.661 9.6666-5.638 25.524-6.9284 30.015-9.96 34.667-3.5429 5.436-5.9892 6.3171-7.4042 2.6667-0.849-2.1899-1.0178-2.1796-2.7454 0.1672-2.3042 3.1302-5.583 2.0208-7.2892-2.4664-0.7041-1.8522-1.8252-3.3675-2.491-3.3675-0.666 0-1.5551-1.3163-1.9758-2.9251-0.6986-2.6714-0.9724-2.7482-3.1556-0.8862-4.0637 3.4658-10.62 5.5216-13.13 4.1169-1.5384-0.8609-1.7846-1.5693-0.7646-2.1997 1.8614-1.1506 1.9914-4.7726 0.1712-4.7726-0.7334 0-1.3334 0.8812-1.3334 1.9582 0 1.134-0.7885 1.6556-1.8733 1.2393-1.2489-0.4793-2.1516 0.5475-2.7079 3.0801-0.4589 2.0895-2.1134 4.5978-3.6768 5.5742-2.5205 1.5741-3.1056 1.4262-5.1665-1.3059-1.7593-2.3325-2.7595-2.7305-4.1164-1.6381-0.9859 0.7936-3.2924 1.2748-5.1257 1.0694-2.5874-0.2898-3.8046 0.566-5.4388 3.8247-1.158 2.3089-3.7166 4.9849-5.6856 5.9467-3.1626 1.5445-3.9879 1.4278-7.0744-1-1.9218-1.5118-4.3132-2.7486-5.3144-2.7486-1.0011 0-1.8675-1.05-1.9254-2.3333-0.069-1.5216-0.3485-1.7257-0.8045-0.5867-0.9491 2.371-6.4819 8.2534-7.7628 8.2534-0.5684 0-1.7847 1.0273-2.7028 2.283-1.3631 1.864-2.0389 1.9763-3.6829 0.6119-1.1074-0.9191-2.3658-3.0747-2.7963-4.7903-0.4307-1.7156-2.0815-3.4589-3.6685-3.874-3.5372-0.9249-10.477 2.4574-10.477 5.1062 0 1.0642-1.4582 2.8905-3.2406 4.0584-3.047 1.9964-3.4202 1.944-6.2406-0.8764-2.7786-2.7787-3.4492-4.7238-3.741-10.852-0.1583-3.3253-1.4562-2.9221-7.0074 2.1767-2.9232 2.6851-5.3828 4.0109-6.1036 3.2901-0.7206-0.7206-2.2278 0.6883-3.7401 3.4964-1.3932 2.587-2.9239 4.7035-3.4015 4.7035s-1.618-1.8097-2.5341-4.0216c-1.1789-2.8463-2.1233-3.6419-3.2312-2.7224-0.8609 0.7144-2.8671 0.9587-4.4581 0.5425-2.2255-0.5818-3.2679 0.067-4.5186 2.8115-1.2209 2.6797-2.309 3.3844-4.371 2.8305-1.51-0.4056-3.7955-0.7456-5.0788-0.7556-1.4655-0.013-2.3334-1.0456-2.3334-2.7801 0-3.326-3.4482-7.2095-4.6604-5.2484-1.2056 1.9509-3.6538 1.6524-2.65-0.3231 0.4658-0.9166-0.3986-0.1666-1.9209 1.6667s-3.4412 4.1364-4.2643 5.1179c-1.0028 1.1958-2.982 1.5058-6.0004 0.9396-4.1581-0.7802-4.504-0.5843-4.504 2.5488 0 4.5308-4.3684 4.572-6.424 0.06-1.471-3.2287-5.576-4.701-5.576-2 0 0.7333-0.9077 1.3333-2.0173 1.3333-2.0765 0-6.5753 8.5063-7.9333 15-0.8488 4.0587-3.4652 4.7269-6.5255 1.6667-1.1-1.1-3.4663-2-5.2583-2-2.7918 0-3.3852-0.7951-4.1466-5.5566-0.8139-5.0901-1.0358-5.342-2.6431-3-1.6719 2.4362-3.1729 7.4258-3.978 13.223-0.2653 1.911-1.5563 2.7842-4.5549 3.0811-3.5979 0.3563-4.3131-0.097-5.0999-3.2319l-0.9152-3.6462-3.0667 3.5652c-1.6866 1.9608-3.3226 3.5652-3.6354 3.5652-0.313 0-1.3576-1.95-2.3216-4.3334-2.6222-6.4829-7.9042-8.9857-7.9042-3.7453 0 3.5951-2.2246 4.6125-3.8774 1.7733-1.2423-2.1337-1.3787-2.0761-1.4154 0.5976-0.1013 7.4351-9.3909 17.995-12.048 13.696-0.4231-0.6846-2.3684 0.2379-4.3228 2.0502-3.997 3.7061-8.333 4.2981-9.4854 1.2949-0.4221-1.1-1.5817-2-2.5769-2-2.2285 0-7.9433-5.8865-6.8125-7.0172 0.4506-0.4508-1.4939-0.1253-4.3212 0.7237-2.8274 0.8487-5.788 2.388-6.5795 3.4204-1.0984 1.4332-2.0755 1.5367-4.1291 0.4376-1.9774-1.0582-3.1158-1.0148-4.2973 0.1646-2.1929 2.1889-11.922 2.0714-12.778-0.1544-0.4027-1.0463-1.7079-1.4314-3.2224-0.9506-1.9344 0.6139-2.8712-0.084-3.9014-2.9081l-1.3556-3.716-0.1053 3.4008c-0.1581 5.1105-3.1379 10.577-5.7719 10.589-1.6028 0.013-2.3333-1.0332-2.3333-3.3229 0-3.7151-1.944-4.473-3.1841-1.2414-0.5207 1.3568-1.7068 1.805-3.3756 1.2752-1.9515-0.6193-2.6778-0.1026-3.0066 2.1371-0.742 5.0527-3.2384 4.1597-5.0369-1.8016-0.9463-3.1364-1.9003-6.3027-2.1201-7.036s-0.4659-0.1333-0.5472 1.3333c-0.2175 3.9275-3.5958 7.7979-6.0007 6.875-1.1364-0.436-3.0763-2.9112-4.3111-5.5006-2.6846-5.6298-5.4133-6.1036-5.9958-1.041-0.302 2.6253-1.2739 3.7877-3.4219 4.0928-2.7028 0.3837-3.0089-0.1446-3.0903-5.3334-0.076-4.8718-0.2988-5.3293-1.4436-2.9689-1.058 2.1816-2.6384 2.8099-7.243 2.8795-5.319 0.08-5.8898-0.2147-5.8898-3.0451 0-3.6759-2.5032-5.7136-4.0145-3.2681-0.5773 0.9341-2.0103 1.3298-3.1843 0.8793-2.5164-0.9656-2.8045 0.5605-0.5345 2.8305 1.2444 1.2444 1.1464 1.6-0.4413 1.6-1.1228 0-2.825 1.4642-3.7827 3.2536-1.5004 2.8035-2.6384 3.2332-8.2253 3.1059-6.1939-0.1411-6.484-0.3164-6.484-3.9203 0-2.0749-0.45-3.7472-1-3.7161-1.1187 0.063-7 8.8819-7 10.496 0 0.5688-1.2 2.1202-2.6667 3.4475-2.5289 2.2887-2.7981 2.2943-5.2125 0.1093-2.4142-2.1846-2.6147-2.1814-3.8711 0.064-1.1311 2.0212-1.6427 2.1042-3.4957 0.5663-1.8555-1.54-2.449-1.434-4.0867 0.7296-1.0537 1.3921-1.9349 3.0252-1.9583 3.6289-0.091 2.3434-4.7093 0.047-4.7146-2.3436 0-1.3946-0.7532-2.7848-1.6667-3.0893-1.1401-0.38-1.6611 1.1089-1.6611 4.7481 0 6.9979-2.3894 7.7604-11.223 3.5815-3.8688-1.8303-7.3614-3.3277-7.7611-3.3277s-1.1032 1.5-1.5633 3.3333c-1.3167 5.2457-7.4526 3.3795-7.4526-2.2667 0-1.32-0.5572-2.4-1.2381-2.4-1.9584 0-5.4285 3.9875-5.4285 6.2379 0 1.2912-0.7546 1.7579-2.0427 1.2636-1.3605-0.5221-2.4667 0.3312-3.312 2.5548-1.0391 2.7327-1.8801 3.1853-4.6352 2.4939-2.6375-0.662-4.301 0.072-7.6879 3.395-2.3773 2.3319-5.9396 4.5667-7.9164 4.9662-2.5744 0.5202-3.8253 1.7788-4.4089 4.4358-0.4482 2.0403-1.8694 4.664-3.1582 5.8304-2.1456 1.9418-2.7314 1.9231-6.9376-0.2214-2.8997-1.4784-4.4392-3.1472-4.1738-4.5248 0.6362-3.3043-2.074-4.2067-3.0834-1.0266-1.0389 3.2732-9.9073 11.84-12.311 11.892-0.9167 0.02-1.6667-1.2078-1.6667-2.7282 0-1.864-0.7241-2.624-2.2228-2.3334-2.9135 0.565-3.9517 3.7644-1.2216 3.7644 1.1611 0 2.1111 0.551 2.1111 1.2243s0.3565 2.3233 0.7924 3.6667c0.4702 1.4493 0.3348 1.8606-0.3334 1.0118-2.3345-2.9666-5.7004-3.1517-7.6146-0.4186-1.6638 2.3753-2.116 2.464-3.7031 0.7261-1.5755-1.7251-2.3572-1.3515-6.0779 2.9049-4.1309 4.7258-4.3325 4.7996-6.189 2.2684-1.6898-2.3034-2.1938-2.3884-4.2163-0.7098-2.0349 1.6888-2.5888 1.5462-4.8521-1.2488-2.2404-2.767-2.7551-2.905-4.1806-1.1216-0.894 1.1185-3.6136 2.4005-6.0434 2.8488-3.9928 0.7366-4.3351 0.5538-3.5566-1.8992 1.1128-3.5062-1.485-6.5863-5.555-6.5863-3.1047 0-3.4088-0.4301-6.5996-9.3333-0.5996-1.673-0.9379-1.6063-2.0682 0.4073-1.0677 1.9021-1.7482 2.0777-3.2436 0.8367-1.0408-0.8638-1.8924-2.4182-1.8924-3.4542 0-1.4492-0.5949-1.5653-2.579-0.5034-4.3114 2.3073-6.6575 1.5921-7.4992-2.2864-1.0323-4.7558-3.4306-9.6667-4.721-9.6667-0.5584 0-1.207 1.35-1.4413 3-0.2739 1.928-1.4981 3.1523-3.4261 3.4261-4.0024 0.5684-3.8143 2.652 0.3333 3.6931 2.9157 0.7317 3.3333 1.5624 3.3333 6.6293 0 6.1062-2.2372 12.585-4.3458 12.585-0.6882 0-3.3047 0.9744-5.8146 2.1655-4.1824 1.9847-4.3661 2.3096-2.2014 3.8925 2.2244 1.6266 2.1737 1.9274-0.8706 5.1679-1.7778 1.8924-3.6073 3.4408-4.0654 3.4408-0.4583 0-1.5926-2.1-2.5206-4.6667-1.7293-4.7822-4.553-6.048-6.4486-2.8905-0.5864 0.9768-2.8162 1.7268-4.955 1.6667-3.2129-0.091-4.3714 0.8009-6.6666 5.1297-2.7548 5.1955-6.5227 8.0436-6.0443 4.5689 0.6259-4.5469-0.2235-7.8081-2.0337-7.8081-1.4584 0-1.7671-0.998-1.1944-3.8611 0.5642-2.8213 0.044-4.59-1.9344-6.5677-1.6986-1.6985-2.4394-3.7288-1.9891-5.4508 0.3948-1.5093 0.3048-4.3892-0.1997-6.3996l-0.9175-3.6553-2.4708 3.2756c-1.6387 2.1724-2.2221 4.5189-1.7324 6.9673 0.5765 2.8831 0.2384 3.6916-1.5443 3.6916-1.2934 0-2.914 1.6732-3.74 3.8615-1.2225 3.2388-1.8337 3.6264-3.791 2.404-1.8824-1.1756-2.8375-0.8351-4.9392 1.7602l-2.6055 3.2178-3.4645-3.2884c-1.9055-1.8087-3.4748-4.3384-3.4875-5.6218-0.013-1.2833-0.9419-2.3333-2.0649-2.3333s-2.4142 1.05-2.8694 2.3333c-0.455 1.2834-1.709 3.361-2.7865 4.6171-1.0775 1.256-1.6051 3.206-1.1725 4.3333 1.7554 4.5747-3.94 1.7778-6.887-3.3821-2.5286-4.4273-3.4377-5.1231-5-3.8264-1.0502 0.8715-1.9094 2.7112-1.9094 4.088 0 3.5367-4.8264 3.2525-5.7658-0.3393-0.5396-2.0632-1.4786-2.6504-3.4249-2.1415-1.4748 0.3856-2.8935 0.065-3.1527-0.7123-0.6661-1.9984-7.6566 5.8572-7.6566 8.6043 0 1.2475 0.6 2.6391 1.3333 3.0923 2.06 1.2732 1.5752 4.6666-0.6667 4.6666-1.2444 0-2-1.2592-2-3.3333 0-1.8333-0.6148-3.3333-1.3664-3.3333-0.7514 0-1.9365 1.5-2.6336 3.3333-0.788 2.0727-2.3102 3.3333-4.0252 3.3333-1.5168 0-4.3754 1.5-6.3526 3.3334-4.6062 4.271-5.7098 4.1902-8.9555-0.6554-3.2165-4.802-5.6853-5.9324-8.2707-3.7868-1.5193 1.2611-2.1716 1.2172-3.0505-0.2048-0.9228-1.4932-1.7113-1.42-4.5181 0.4191-4.9472 3.2415-7.4507 2.7501-9.0271-1.7721-0.8601-2.4672-2.3237-4-3.8196-4-1.3339 0-2.7001-0.75-3.0363-1.6667-0.8084-2.2048-3.6565 0.3691-4.1533 3.7535-0.5693 3.8793-3.4577 3.8996-3.4577 0.024 0-3.5352-0.8824-4.0454-4.5576-2.6351-2.3994 0.9207-2.9068 7.8736-0.6754 9.2527 1.3456 0.8317-2.7876 5.938-4.8065 5.938-0.4497 0-1.7177 0.9-2.8177 2-2.5139 2.514-7.6624 2.587-9.6952 0.1376-0.8502-1.0243-2.7236-1.5543-4.1634-1.1778-2.239 0.5855-2.6176 0-2.6176-4.059 0-6.0332-1.7654-7.1415-4.5664-2.8668-1.5292 2.334-2.0332 5.3498-1.6678 9.982 0.3554 4.507-0.057 7.1198-1.2879 8.1406-0.9961 0.8268-1.8112 2.3298-1.8112 3.3399 0 1.0103-0.5071 1.8368-1.1267 1.8368-2.2521 0-5.54-4.9613-5.54-8.3596 0-1.9157-0.5458-3.8204-1.213-4.2327-2.0148-1.2453-5.335 0.6835-4.577 2.6588 0.5227 1.3619-0.3833 1.77-3.4552 1.5563-3.5486-0.2467-4.1282-0.7817-3.9248-3.6228 0.4803-6.7033-0.1976-9.0313-2.83-9.7196-1.5626-0.4087-2.6666-1.8188-2.6666-3.406 0-1.7311-0.8422-2.6705-2.3334-2.6029-1.2833 0.057-3.1836-0.1294-4.2226-0.4163-1.3638-0.3767-1.9538 0.8841-2.1206 4.5309-0.1266 2.7791 0.2731 5.3646 0.8894 5.7454 2.7824 1.7197 0.8374 3.3516-2.992 2.5105-3.907-0.8581-4.0903-0.7135-3.6667 2.894 0.358 3.0487-0.08 3.8041-2.2208 3.8317-2.2201 0.028-2.6031 0.8056-2.2867 4.6398 0.209 2.5329 1.2716 5.1044 2.3614 5.7142 2.9196 1.6339 1.0102 3.6116-3.4867 3.6116-3.5991 0-3.9415-0.4109-4.1656-5-0.1343-2.75-0.1761-6.315-0.093-7.9225 0.2936-5.6689-3.3304-1.6557-4.2171 4.67-0.482 3.4389-1.6327 7.6156-2.5569 9.2817-1.623 2.9255-1.8267 2.7568-5.9514-4.9265-2.3489-4.3756-4.2708-8.8887-4.2708-10.029 0-4.1376-3.5936-2.0964-3.713 2.1091-0.142 4.9945-0.9794 5.8876-6.4808 6.9131-3.4126 0.6361-4.3207 0.2964-4.8752-1.8236-0.3747-1.4331-1.6375-2.6055-2.8062-2.6055-2.3774 0-2.8513-2.0603-0.7697-3.3468 0.7453-0.4605 1.0355-1.3545 0.6449-1.9865-0.3905-0.632-0.1-1.526 0.645-1.9866 1.7426-1.077 1.7573-3.3468 0.021-3.3468-0.7333 0-1.3333 0.944-1.3333 2.0978 0 4.2497-4.6471 1.3393-5.3334-3.3403-0.9713-6.6227-2.9048-6.2517-6.5957 1.2652-3.2299 6.5779-5.4043 8.4653-5.4043 4.6909 0-2.2828-4.8033-5.1985-6.6666-4.0469-1.7992 1.112-6.6667-1.7293-6.6667-3.8915 0-0.9886 1.2604-2.127 2.8008-2.53 1.5708-0.4106 2.4087-1.3669 1.9079-2.1772-0.4911-0.7946-1.4515-1.0996-2.1342-0.6777-2.0186 1.2476-1.4153-3.8817 0.8344-7.0936 1.1634-1.6609 1.4564-2.9633 0.6667-2.9633-0.7749 0-1.4089-2.1-1.4089-4.6667 0-5.4108-0.3928-5.6072-4-2-2.9151 2.9151-3.3915 4.8652-1.357 5.5556 0.7878 0.2673 0.888 2.0171 0.2516 4.3909-0.679 2.5335-1.4149 3.369-2.055 2.3334-1.493-2.4156-6.1396-1.9434-7.0842 0.7201-0.455 1.2833-1.7862 3.4709-2.9581 4.8615-1.5997 1.8982-1.7155 2.6733-0.464 3.111 3.7541 1.3132 1.3984 3.098-3 2.2728-4.6883-0.8794-4.7571-0.8214-5.2177 4.3952-0.08 0.9022-1.1883 2.8591-2.4635 4.3486-1.2753 1.4894-2.3379 4.3512-2.3612 6.3594-0.051 4.3967-2.7719 8.3182-5.7712 8.3182-1.4433 0-2.1864 1.1329-2.1864 3.3333 0 1.9912-0.7627 3.3333-1.894 3.3333-2.3777 0-4.1517-7.535-2.2995-9.7668 1.5418-1.8577 0.6762-15.584-1.0957-17.376-1.8119-1.8322-4.3851 4.4388-3.5449 8.6395 0.645 3.2252 0.3332 3.8371-1.9558 3.8371-2.0196 0-2.5256 0.6225-1.9584 2.4097 0.5286 1.6651-0.4725 3.3247-3.2389 5.37-3.7801 2.7947-4.23 2.8431-8.0531 0.8661-2.6645-1.378-4.319-3.4422-4.8378-6.0366-0.6739-3.3695-1.4008-3.9426-5.0011-3.9426-3.2115 0-4.7428-0.8977-6.4439-3.7773-1.8716-3.1685-2.9084-3.6779-6.432-3.1608-3.6042 0.5291-4.1032 0.2607-3.5134-1.8893 2.8781-10.493 2.1029-12.137-5.7315-12.151-2.8431 0-5.8391 1.0566-7.6667 2.7174-3.5278 3.2056-3.6985 4.4197-1 7.1182 2.7583 2.7583 2.5024 4.4762-0.6666 4.4762-1.4667 0-2.6667-0.6-2.6667-1.3334 0-0.7333-0.6-1.3333-1.3333-1.3333-1.9371 0-1.5471 5.4609 0.6666 9.3333 2.9108 5.0919 2.4384 6.6667-2 6.6667-3.5556 0-4-0.4444-4-4 0-4.1869-2.1989-5.4371-3.5178-2-1.5042 3.9197-4.4822 2.1792-4.4822-2.6197 0-3.3336-0.7822-5.0384-2.8098-6.1236-3.7988-2.0331-5.6738 0.041-5.4487 6.0278 0.1943 5.1647-1.4729 5.9751-5.2535 2.5538-2.7389-2.4787-7.1329-1.4422-6.0333 1.4232 0.4757 1.2398-0.2912 2.0512-2.1951 2.3221-2.4822 0.3532-2.9262 1.2661-2.9262 6.0164 0 7.8088-2.0274 9.4455-7.0763 5.7127-4.3572-3.2215-6.9237-2.6659-6.9237 1.4989 0 1.4597-0.8534 4.3044-1.8963 6.3212-1.0431 2.0169-1.7931 4.7725-1.6667 6.1236 0.1267 1.3512-0.5204 2.7212-1.437 3.0445-0.9167 0.3234-1.6667-0.3409-1.6667-1.4762 0-1.1354-1.2527-2.7346-2.7837-3.554-2.0991-1.1234-2.5822-2.2928-1.9642-4.7551 0.6679-2.6608 0.075-3.6893-3.2078-5.5571-2.2151-1.2605-4.0312-2.7209-4.0359-3.2454 0-0.5246-1.8705-3.0746-4.1465-5.6667-5.0966-5.8047-8.8775-6.2443-8.9986-1.0464-0.047 2.0167-0.1508 4.6763-0.2306 5.9101-0.08 1.2339-2.1274 3.7552-4.5498 5.603l-4.4045 3.3594-2.9789-3.1709c-1.6384-1.744-2.5883-3.8029-2.1108-4.5753 1.0436-1.6887-1.47-6.793-3.3452-6.793-1.9298 0-3.8607 5.7568-2.4375 7.2667 2.2716 2.4097 1.3108 8.5769-1.5768 10.122-3.2381 1.7329-6.5625 0.8175-6.5625-1.8072 0-1.0093-1.2-2.9212-2.6667-4.2485-3.1688-2.8678-3.4259-4.6667-0.6667-4.6667 2.602 0 2.5816-4.5241-0.031-6.6916-1.1719-0.9727-1.6976-2.7325-1.2435-4.1633 1.1227-3.5371-3.5831-3.2822-5.8301 0.316-1.4854 2.3785-1.4032 3.1721 0.5526 5.3333 2.0671 2.284 2.0808 2.5389 0.1374 2.5389-5.4458 0-23.586 14.322-23.586 18.622 0 1.1652-0.9584 3.4868-2.1299 5.1593-1.6762 2.3934-2.93 2.865-5.8882 2.2152-3.1835-0.6992-4.0304-0.2594-5.5368 2.8748-1.1286 2.3482-3.4166 4.1694-6.2615 4.9839-3.9613 1.1343-4.7829 0.9071-7.0603-1.9521-1.4174-1.7798-3.1738-4.6875-3.903-6.4616l-1.3259-3.2258-5.8484 5.7396c-6.0835 5.9706-10.046 6.5555-10.046 1.4831 0-3.7668-2.8085-9.4379-4.674-9.4379-0.8687 0-2.4799 1.05-3.5807 2.3334-2.9185 3.4028-8.187 15.003-7.2428 15.947 1.5616 1.5616-2.2029 4.3864-5.8457 4.3864-2.4935 0-4.4157-1.1176-5.9501-3.4593l-2.2666-3.4594-3.2201 3.0251c-1.7709 1.6639-3.22 4.0005-3.22 5.1927 0 2.7442-2.5805 5.3701-5.2667 5.3592-1.1366 0-3.098-1.8208-4.3585-4.0359-1.9285-3.3888-2.8492-3.8875-5.8067-3.1452-2.8193 0.7076-4.0889 0.162-6.417-2.7576l-2.9023-3.6399-4.9577 2.9252c-2.767 1.6326-4.9578 3.9732-4.9578 5.2968 0 1.3046-0.8693 3.0932-1.9318 3.975-1.0624 0.8818-2.5754 3.5053-3.362 5.83-1.1029 3.259-2.9782 4.9068-8.1913 7.1973-6.1926 2.7209-7.0812 2.8049-10.572 1-2.0959-1.0839-5.2671-1.9707-7.047-1.9707-1.78 0-3.9833-0.9-4.8962-2-2.4577-2.9613-6.6666-2.5405-6.6666 0.6667 0 2.0741-0.8889 2.6667-4 2.6667-3.0286 0-4 0.6098-4 2.5112 0 3.793-5.0293 4.546-6.9149 1.0352-1.5064-2.805-1.5927-2.7671-3.3197 1.4536-0.9752 2.3833-2.7051 4.3333-3.8442 4.3333-1.1727 0-3.2226 2.6031-4.7253 6-4.0962 9.2601-6.0364 8.0803-13.703-8.3333-2.4138-5.1679-5.7399-5.6119-7.4933-1-0.6971 1.8333-1.9473 3.3333-2.7783 3.3333-0.9282 0-1.2017 1.2317-0.7091 3.1943 0.5527 2.2022 0.1573 3.4417-1.2733 3.9906-1.1413 0.4379-1.7202 1.3704-1.2865 2.0722 0.4337 0.7017-0.3742 1.8981-1.7954 2.6586-1.5806 0.846-2.936 3.4671-3.4908 6.751-1.1245 6.6558-3.7494 8.223-10.71 6.3948-7.0637-1.8551-16.282 0.5546-17.873 4.6724-2.4275 6.2818-7.4688 9.3137-15.487 9.3137-5.0798 0-7.7165 0.5828-8.1873 1.8096-1.1342 2.9557-6.6799 2.0665-9.5042-1.5239-1.4421-1.8333-3.3549-3.3333-4.2508-3.3333-0.8958 0-3.9408 2.5293-6.7667 5.6208-3.0379 3.3235-6.4086 5.6765-8.2466 5.7569-4.323 0.1892-6.3074 1.6683-6.3074 4.701 0 2.8044-3.8232 3.5648-6.1624 1.2256-0.9277-0.9278-2.3039-0.546-4.3129 1.1964-1.6968 1.4716-4.0638 2.2677-5.5709 1.8736-1.4691-0.3842-2.6205-0.02-2.6205 0.8289 0 0.9495-1.2434 1.2021-3.3333 0.6776-2.0539-0.5155-3.3333-0.2693-3.3333 0.6413 0 0.8128-0.9263 1.4779-2.0585 1.4779-1.1321 0-1.8914-0.75-1.6873-1.6667 0.7712-3.4629-3.3524-10.27-8.2975-13.697-5.866-4.0651-8.5644-3.3416-7.4942 2.0094 0.5918 2.9588 0.1088 3.9396-2.5323 5.1431-1.8958 0.8637-3.2636 2.6165-3.2636 4.1823 0 3.0684 2.3877 3.6404 3.4661 0.8302 0.4553-1.1866 2.5014-1.7929 5.6248-1.6666 6.7554 0.2728 6.1994 2.7714-0.7285 3.2734-4.8969 0.355-5.5976 0.7916-5.3333 3.3238 0.2831 2.712-0.2736 2.9197-7.9926 2.9814-5.604 0.045-8.5114-0.493-8.9581-1.657-1.2807-3.3407-3.4104-1.6699-3.4104 2.6769 0 3.95-1.9886 7.7473-3.9333 7.5108-0.4033-0.049-3.3116-0.8941-6.4628-1.8779zm-108.65-15.248c2.1035-3.3681-0.7316-4.5892-5.5084-2.3725-4.0038 1.858-4.3619 3.1512-1.1081 4.0016 4.2765 1.1176 5.0148 0.9357 6.6165-1.6291zm172.38-6.1185c0-1.8334-0.6-3.3334-1.3334-3.3334-1.4895 0-1.8276 4.3947-0.4444 5.7778 1.4698 1.4698 1.7778 1.0464 1.7778-2.4444zm-81.666-5.666c0.729-2.1895-3.4487-3.7524-5.2405-1.9606-0.7668 0.7668-0.9706 2.0798-0.4527 2.9175 1.178 1.9063 4.951 1.272 5.6932-0.9569zm-93-5.0007c0-1.1-0.6-2-1.3333-2s-1.3333 0.9-1.3333 2 0.6 2 1.3333 2 1.3333-0.9 1.3333-2zm-2.5528-9.2629c1.9495 1.2048 1.4089-0.7382-0.8275-2.9746-1.7072-1.7072-2.7003-1.7765-5.9815-0.4174-2.1639 0.8964-5.7427 1.3642-7.9529 1.0398s-4.0186-0.093-4.0186 0.5127c0 0.6063 1.65 1.1517 3.6667 1.212 4.9298 0.1475 11.465 1.244 12.281 2.0608 0.3647 0.3645 0.8768 0.021 1.138-0.762 0.2612-0.7837 1.0238-1.0859 1.6944-0.6713zm-4.3494-30.514c0.2809-1.4484-0.4546-2.2228-2.1111-2.2228-3.5009 0-4.5872 1.4048-2.775 3.5884 1.8854 2.2717 4.3122 1.5936 4.8861-1.3656zm-17.583-9.5485c0.4205-1.0958 1.1517-1.7662 1.6248-1.4899 1.4381 0.84 6.8603-1.6691 6.8603-3.1744 0-0.7752-1.5-1.9796-3.3333-2.6767-2.8089-1.068-3.3333-2.129-3.3333-6.7448 0-6.0297-2.9736-6.933-3.7883-1.1508-0.2502 1.7759-1.3393 4.2194-2.4202 5.4299-1.4214 1.5919-1.5423 2.4624-0.437 3.1455 0.8405 0.5194 1.1905 2.29 0.7778 3.9344-1.1237 4.4772 2.4532 6.886 4.0492 2.7268zm-29.515-27.341c0.4533-0.7333-0.1467-1.3333-1.3333-1.3333s-1.7866 0.6-1.3333 1.3333c0.4532 0.7334 1.0532 1.3334 1.3333 1.3334s0.8801-0.6 1.3333-1.3334zm-56.667-25.931c0-0.3288-1.5027-2.2193-3.3394-4.2012-3.2388-3.4947-3.4194-3.5308-5.9953-1.1996-2.0261 1.8336-2.3022 2.8299-1.164 4.2012 1.3397 1.6143 10.499 2.6608 10.499 1.1996zm-6.6667-10.069c0-0.7333-0.6-1.3333-1.3333-1.3333-0.7334 0-1.3334 0.6-1.3334 1.3333 0 0.7334 0.6 1.3334 1.3334 1.3334 0.7333 0 1.3333-0.6 1.3333-1.3334zm-98.667-6c-0.9129-1.1-1.8222-2-2.0206-2s-0.7061 0.9-1.1282 2c-0.5314 1.3848 0.09 2 2.0206 2 2.3271 0 2.5137-0.3306 1.1282-2zm20.55 1.1936c3.6663-1.4069 0.8334-3.1958-4.962-3.1334l-5.588 0.06 4 1.8316c2.2 1.0073 4.101 1.8802 4.2243 1.9398 0.1233 0.06 1.1699-0.2546 2.3257-0.6981zm79.45-3.1936c0-0.7333-0.6354-1.3333-1.412-1.3333s-1.0412 0.6-0.588 1.3333c0.4533 0.7334 1.0887 1.3334 1.4121 1.3334 0.3233 0 0.5879-0.6 0.5879-1.3334zm-29.333-6.7393c0-1.5764-1.3025-2.1297-7.3333-3.1157-5.0478-0.8252-5.1906-0.7582-2.6667 1.2524 1.4667 1.1682 2.5531 2.5726 2.4143 3.1206-0.1389 0.548 1.5111 0.7376 3.6666 0.4212s3.9191-1.0717 3.9191-1.6785zm-308-20.515c0-0.3234-0.6-0.9588-1.3333-1.412-0.7334-0.4532-1.3334-0.1887-1.3334 0.588 0 0.7765 0.6 1.412 1.3334 1.412 0.7333 0 1.3333-0.2646 1.3333-0.588zm1296.7-0.7454c0.4532-0.7333 0.224-1.3333-0.5093-1.3333s-1.7041 0.6-2.1573 1.3333c-0.4532 0.7334-0.224 1.3334 0.5093 1.3334s1.7041-0.6 2.1573-1.3334zm-5.3401-11.333c-0.4097-10.048-0.4005-10-1.9419-10-2.2365 0-4.4366 10.596-2.6476 12.752 0.8587 1.0346 1.2411 2.7157 0.8496 3.7357-0.3913 1.02-0.035 2.5316 0.793 3.3591 2.3644 2.3644 3.3153-0.8131 2.9469-9.8463zm-1048.7-16.667c0-0.7333-0.6355-1.3333-1.4121-1.3333s-1.0412 0.6-0.5879 1.3333c0.4532 0.7334 1.0886 1.3334 1.412 1.3334s0.588-0.6 0.588-1.3334zm1406.7-6.4118c0-0.5931-0.9489-2.2431-2.1088-3.6667-1.9297-2.3683-2.0431-2.3807-1.3333-0.1457 0.4265 1.3433 0.7754 2.9933 0.7754 3.6666 0 0.6734 0.6 1.2243 1.3334 1.2243 0.7333 0 1.3333-0.4853 1.3333-1.0785zm13.333-9.5882c0-0.7333-0.6-1.3333-1.3333-1.3333s-1.3333 0.6-1.3333 1.3333c0 0.7334 0.6 1.3334 1.3333 1.3334s1.3333-0.6 1.3333-1.3334zm-1457.3-30.667c0-0.7334-0.6-1.3334-1.3333-1.3334s-1.3333 0.6-1.3333 1.3334c0 0.7333 0.6 1.3333 1.3333 1.3333s1.3333-0.6 1.3333-1.3333zm1676-2.6667c0-0.7333-0.6-1.3333-1.3333-1.3333s-1.3333 0.6-1.3333 1.3333 0.6 1.3333 1.3333 1.3333 1.3333-0.6 1.3333-1.3333zm-1791.5-3.2184c2.0383-3.1109 1.9776-3.2643-1.8172-4.5871-4.4303-1.5444-5.1468-0.9509-4.5943 3.8055 0.498 4.2873 0.3216 4 2.456 4 1.0157 0 2.7957-1.4483 3.9555-3.2184zm-123.37-1.5672c1.6639-1.1653 3.9642-1.7585 5.1118-1.3183 1.5131 0.5807 1.861 0.213 1.2658-1.3382-0.4514-1.1764-1.1724-3.5398-1.6021-5.2519-0.9433-3.7585-4.0221-5.2472-5.091-2.4616-0.8749 2.28-6.2976 1.996-7.0762-0.3705-0.2761-0.8394 1.9114-2.6394 4.8612-4 2.9498-1.3607 5.3787-2.9239 5.3976-3.4739 0.057-1.6487-9.0628-1.1275-10.117 0.5781-1.5025 2.4311-3.0144-2.8781-2.1581-7.5781 0.7966-4.3724 2.7168-6.3113 5.3094-5.3612 0.9603 0.352 1.6667-0.4555 1.6667-1.9049 0-4.5392-1.5674-6.7339-4.8093-6.7339-1.9473 0-3.1907-0.7795-3.1907-2 0-1.2581 1.269-2 3.421-2 4.043 0 8.579-2.1901 8.579-4.1423 0-0.7601-1.35-1.2725-3-1.1389-5.2435 0.4248-7.6667-0.013-7.6667-1.3855 0-0.7333 0.9-1.3333 2-1.3333 1.1111 0 2-1.1852 2-2.6667 0-1.4666 0.6-2.6666 1.3334-2.6666 2.5714 0 1.3038-4.2574-1.4848-4.9866-2.4602-0.6434-2.7354-1.4709-2.1666-6.5169 1.0559-9.3677-3.5287-11.195-7.7257-3.0787-1.1136 2.1535-2.8443 3.9155-3.846 3.9155-2.6019 0-3.7323 5.9076-1.8999 9.9292 1.7599 3.8627 1.9578 3.5479-3.9674 6.3067-4.099 1.9085-4.2632 2.2201-2.238 4.2452 1.202 1.2021 4.2426 2.1856 6.7569 2.1856s4.5715 0.6 4.5715 1.3333-1.5149 1.3333-3.3664 1.3333c-2.4428 0-3.7475 1.0026-4.7557 3.6546-1.2299 3.2346-0.958 3.9996 2.3663 6.66l3.7558 3.0056h-3.5035c-4.0607 0.013-7.1406 3.0716-6.0209 5.9897 0.4873 1.27 0 2.0169-1.309 2.0169-1.1456 0-2.3968 1.2-2.7803 2.6667-0.3836 1.4667-1.4539 2.6667-2.3786 2.6667s-2.4223 0.8929-3.328 1.9842c-1.3407 1.6154-1.2123 2.151 0.6905 2.8811 2.2245 0.8536 2.2239 0.9797-0.014 2.6159-2.1696 1.5865-2.087 1.7853 1.0705 2.5777 3.7642 0.9448 6.7176-0.2069 5.516-2.1511-0.4219-0.6826 0.6183-1.3102 2.3116-1.3948 5.1938-0.2589 8.3898 0.3474 8.88 1.6848 0.2574 0.7023 1.2206 0.2475 2.1405-1.0105 2.4576-3.3609 6.347-1.4689 5.3278 2.5917-0.8976 3.5764 2.1892 7.5543 5.8623 7.5543 1.2511 0 3.6361-0.9535 5.2999-2.1189zm-125.32-3.5281c-4.5463-2.7811-4.8926-5.012-0.7823-5.04 7.0439-0.048 7.9672-5.8919 1.1863-7.5083-1.9358-0.4615-4.1508-1.3312-4.9223-1.9327-2.1469-1.674-7.5319 0.1734-6.7146 2.3032 0.8799 2.2928 0.6887 2.2839-7.342-0.3428-6.1184-2.0012-6.8109-2.0012-9.0222 0-1.3173 1.1922-3.0979 2.1676-3.9568 2.1676-0.859 0-1.5617 0.579-1.5617 1.2864 0 2.1764 5.4343 4.3348 9.4353 3.7476 3.9976-0.5868 6.7184 2.5563 3.7832 4.3703-3.2132 1.9859 3.6454 3.7635 13.564 3.5153l10.116-0.2529zm231.86 0.8414c-0.443-0.443-1.593-0.4904-2.5555-0.1053-1.0637 0.4256-0.7477 0.7416 0.8055 0.8056 1.4056 0.057 2.1931-0.2573 1.75-0.7004zm-553.22-5.7777c0.3333-1-0.1667-1.5-1.1667-1.1667-0.9625 0.3208-2.0125 1.3708-2.3333 2.3334-0.3334 1 0.1666 1.5 1.1666 1.1666 0.9625-0.3208 2.0125-1.3708 2.3334-2.3333zm2427.4-0.6372c0.3983-1.0379 0.214-3.5879-0.4095-5.6667-1.3133-4.3788-1.4752-4.1808-2.089 2.5539-0.4479 4.9149 1.0776 6.8156 2.4985 3.1128zm-11.106-4.8581c0-0.6902-1.2236-1.2547-2.7192-1.2547-2.2589 0-2.4283 0.3149-1 1.86 1.7736 1.9189 3.7192 1.6023 3.7192-0.6053zm676.61-453.16c0.4219-0.6826 0.1574-1.6181-0.588-2.0786-0.7453-0.4607-1.355 0.097-1.355 1.2412 0 2.342 0.8001 2.6868 1.943 0.8374zm1803.9-1201.7-2.3289-4.4236-1.3211 4.4831c-1.1757 3.9897-0.9649 4.7535 1.9147 6.9409 3.1501 2.3927 3.2468 2.3911 3.6501-0.059 0.2279-1.3845-0.6339-4.5079-1.9148-6.9409zm37.523-27.444c1.8986-1.3722 4.7693-13.103 3.815-15.59-2.1373-5.5697-5.942-0.017-6.2933 9.1842-0.2855 7.4758 0 8.2004 2.4783 6.4056zm-4065.4 1863.7c0.4532-0.7334 1.424-1.3334 2.1573-1.3334 0.7334 0 0.9626 0.6 0.5093 1.3334-0.4532 0.7333-1.424 1.3333-2.1573 1.3333-0.7334 0-0.9626-0.6-0.5093-1.3333zm847.59-50.767c0.2626-0.7883 1.0477-1.4333 1.7444-1.4333 0.6966 0 1.4817 0.645 1.7444 1.4333 0.2628 0.7884-0.5222 1.4333-1.7444 1.4333-1.2223 0-2.0072-0.6449-1.7444-1.4333zm-1236-13.483c0.8241-2.4723 3.6945-2.8824 3.6945-0.5278 0 1.1611-0.95 2.1111-2.1111 2.1111s-1.8736-0.7125-1.5834-1.5833zm1184.6-0.639c-1.6904-1.6904-0.8785-3.111 1.7777-3.111 1.4815 0 2.6667 0.8889 2.6667 2 0 2.0298-2.8205 2.735-4.4444 1.111zm168.44-13.778c0-0.7333 0.9355-1.3333 2.0787-1.3333 1.1433 0 1.7078 0.6 1.2546 1.3333s-1.3886 1.3333-2.0786 1.3333c-0.6902 0-1.2547-0.6-1.2547-1.3333zm295.61-29.333c0.3835-1.4667 1.2274-2.6667 1.8751-2.6667 1.394 0 1.4427 0.4253 0.3685 3.2243-1.1748 3.0614-3.067 2.5912-2.2436-0.5576zm-1674-10.333c0.3529-5.5 0.8206-6.392 3.5544-6.7788 1.8326-0.2593 2.8068 0.1067 2.3315 0.8756-0.4622 0.748 0.1967 1.0611 1.5187 0.7216 1.4164-0.3636 3.0428 0.5482 4.1337 2.3175 1.7287 2.8036 1.638 2.8848-2.3334 2.0905-4.6519-0.9304-4.6085-0.987-2.8315 3.6868 1.2185 3.205 1.0461 3.4202-2.7397 3.4202-3.9879 0-4.0348-0.081-3.6337-6.3334zm1569.7 0.8839c-0.4927-0.7973-0.228-2.1173 0.588-2.9333 1.0896-1.0896 1.4838-0.7044 1.4838 1.4494 0 3.2194-0.6926 3.7154-2.0718 1.4839zm-1355.3-16.509c0-1.1928 0.7817-1.6582 2-1.1906 1.1 0.4221 2 1.3032 2 1.9581 0 0.6548-0.9 1.1907-2 1.1907s-2-0.8812-2-1.9582zm-351-5.6276c-2.7032-0.7065-3.0342-3.18-0.7333-5.4809 2.4346-2.4345 5.5079-2.0063 4.4975 0.6268-0.9337 2.4329 1.2343 4.3873 4.9025 4.4195 2.6651 0.023 3.1825-3.4148 0.6667-4.4299-0.9167-0.3699-1.0667-0.7107-0.3334-0.7573 2.6477-0.1686 5.0377 2.3174 4.2362 4.4064-0.803 2.0924-7.52 2.7092-13.236 1.2154zm215.67-4.4142c-1.4496-2.3455 0.697-4 5.1898-4 5.2036 0 6.6554 1.11 4.6354 3.544-1.7304 2.0849-8.6208 2.4046-9.8252 0.456zm-170-2.588c0-0.69 0.6-1.6255 1.3333-2.0787 0.7334-0.4532 1.3334 0.1107 1.3334 1.2547 0 1.1432-0.6 2.0786-1.3334 2.0786-0.7333 0-1.3333-0.5645-1.3333-1.2546zm192.8-1.6294c-1.111-1.5861-1.7382-3.34-1.3937-3.8973 1.0828-1.7521 8.4183-2.8028 12.819-1.8363l4.2232 0.9276-4.4039 3.845c-5.2538 4.587-8.5099 4.8654-11.245 0.961zm-8.7979-2.4493c2.6087-1.6859 5.3333-1.6859 5.3333 0 0 0.7333-1.65 1.3241-3.6666 1.3129-2.8573-0.016-3.2252-0.3057-1.6667-1.3129zm-519.67-6.2164c-2.6072-1.052-1.9526-4.4503 0.8574-4.4503 2.5326 0 4.6543 3.0439 3.1619 4.5363-0.8974 0.8973-1.6206 0.8819-4.0193-0.085z"/></svg>
